M48
; DRILL file {KiCad (5.1.8)-1} date 11/24/21 12:27:17
; FORMAT={-:-/ absolute / inch / decimal}
; #@! TF.CreationDate,2021-11-24T12:27:17-08:00
; #@! TF.GenerationSoftware,Kicad,Pcbnew,(5.1.8)-1
FMAT,2
INCH
T1C0.0197
T2C0.0250
T3C0.0315
T4C0.0320
T5C0.0394
T6C0.0400
T7C0.1260
%
G90
G05
T1
X4.1339Y-2.1969
X4.1615Y-2.13
X4.1615Y-2.2637
X4.2283Y-2.1024
X4.2283Y-2.2913
X4.2952Y-2.13
X4.2952Y-2.2637
X4.3228Y-2.1969
X7.6772Y-4.9528
X7.7048Y-4.8859
X7.7048Y-5.0196
X7.7717Y-4.8583
X7.7717Y-5.0472
X7.8385Y-4.8859
X7.8385Y-5.0196
X7.8661Y-4.9528
X7.6772Y-2.1969
X7.7048Y-2.13
X7.7048Y-2.2637
X7.7717Y-2.1024
X7.7717Y-2.2913
X7.8385Y-2.13
X7.8385Y-2.2637
X7.8661Y-2.1969
X4.1339Y-4.9528
X4.1615Y-4.8859
X4.1615Y-5.0196
X4.2283Y-4.8583
X4.2283Y-5.0472
X4.2952Y-4.8859
X4.2952Y-5.0196
X4.3228Y-4.9528
T2
X4.825Y-2.925
X4.8875Y-3.2625
X4.9375Y-3.3125
X4.95Y-2.5625
X5.0375Y-2.4625
X5.05Y-4.4
X5.05Y-4.85
X5.1125Y-2.475
X5.1875Y-2.5125
X5.2875Y-3.65
X5.3375Y-3.55
X5.3875Y-3.45
X5.4375Y-3.35
X5.4875Y-2.95
X5.5375Y-3.05
X5.5875Y-3.15
X5.7607Y-4.6357
X5.8125Y-3.8
X5.8375Y-3.05
X5.95Y-3.1625
X5.975Y-3.125
X6.0625Y-4.2
X6.0625Y-4.6375
X6.1625Y-4.4
X6.1875Y-3.6
X6.1875Y-3.9
X6.2Y-4.6375
X6.225Y-3.55
X6.2625Y-3.3
X6.2625Y-3.35
X6.2625Y-3.4
X6.2625Y-3.45
X6.3Y-2.4
X6.3Y-2.5
X6.3Y-2.825
X6.3Y-4.1
X6.3125Y-3.3
X6.3375Y-4.2
X6.3875Y-3.5
X6.4125Y-4.5
X6.425Y-3.65
X6.45Y-4.6
X6.575Y-4.6375
X6.5875Y-3.7625
X6.6125Y-4.6625
X6.7875Y-4.5125
X6.9375Y-3.8125
X6.9625Y-3.95
X7.0Y-4.2
X7.0Y-4.6375
X7.05Y-4.5
X7.05Y-4.6
X7.1Y-4.4125
X7.15Y-4.3
X7.175Y-2.7
X7.225Y-2.725
X7.225Y-3.55
X7.225Y-4.3375
X7.3875Y-3.35
X7.475Y-4.85
X7.4875Y-2.55
X7.5375Y-4.85
T3
X4.7508Y-3.125
X4.8492Y-3.125
X4.7508Y-2.725
X4.8492Y-2.725
T4
X4.7Y-4.75
X4.9Y-4.75
X4.7Y-2.525
X4.9Y-2.525
X5.5Y-4.75
X5.7Y-4.75
X4.3Y-3.25
X4.5Y-3.25
X7.5Y-2.85
X7.5Y-2.95
X7.5Y-3.05
X7.5Y-3.15
X7.5Y-3.25
X7.5Y-3.35
X7.5Y-3.45
X7.8Y-2.85
X7.8Y-2.95
X7.8Y-3.05
X7.8Y-3.15
X7.8Y-3.25
X7.8Y-3.35
X7.8Y-3.45
X6.7Y-3.45
X6.7Y-3.55
X6.7Y-3.65
X6.7Y-3.75
X6.7Y-3.85
X6.7Y-3.95
X6.7Y-4.05
X6.7Y-4.15
X6.7Y-4.25
X6.7Y-4.35
X6.7Y-4.45
X6.7Y-4.55
X7.3Y-3.45
X7.3Y-3.55
X7.3Y-3.65
X7.3Y-3.75
X7.3Y-3.85
X7.3Y-3.95
X7.3Y-4.05
X7.3Y-4.15
X7.3Y-4.25
X7.3Y-4.35
X7.3Y-4.45
X7.3Y-4.55
X7.1Y-2.15
X7.1Y-2.25
X7.1Y-2.35
X7.1Y-2.45
X7.1Y-2.55
X7.1Y-2.65
X7.1Y-2.75
X7.4Y-2.15
X7.4Y-2.25
X7.4Y-2.35
X7.4Y-2.45
X7.4Y-2.55
X7.4Y-2.65
X7.4Y-2.75
X7.1Y-2.95
X7.3Y-2.95
X6.6Y-2.95
X6.8Y-2.95
X5.9Y-4.75
X6.1Y-4.75
X7.0Y-2.45
X7.0Y-2.75
X5.1Y-2.65
X5.1Y-2.75
X5.1Y-2.85
X5.1Y-2.95
X5.1Y-3.05
X5.1Y-3.15
X5.1Y-3.25
X5.1Y-3.35
X5.1Y-3.45
X5.1Y-3.55
X5.1Y-3.65
X5.1Y-3.75
X5.1Y-3.85
X5.1Y-3.95
X5.1Y-4.05
X5.1Y-4.15
X5.1Y-4.25
X5.1Y-4.35
X5.1Y-4.45
X5.1Y-4.55
X5.7Y-2.65
X5.7Y-2.75
X5.7Y-2.85
X5.7Y-2.95
X5.7Y-3.05
X5.7Y-3.15
X5.7Y-3.25
X5.7Y-3.35
X5.7Y-3.45
X5.7Y-3.55
X5.7Y-3.65
X5.7Y-3.75
X5.7Y-3.85
X5.7Y-3.95
X5.7Y-4.05
X5.7Y-4.15
X5.7Y-4.25
X5.7Y-4.35
X5.7Y-4.45
X5.7Y-4.55
X5.9Y-3.25
X5.9Y-3.35
X5.9Y-3.45
X5.9Y-3.55
X5.9Y-3.65
X5.9Y-3.75
X5.9Y-3.85
X5.9Y-3.95
X5.9Y-4.05
X5.9Y-4.15
X5.9Y-4.25
X5.9Y-4.35
X5.9Y-4.45
X5.9Y-4.55
X6.5Y-3.25
X6.5Y-3.35
X6.5Y-3.45
X6.5Y-3.55
X6.5Y-3.65
X6.5Y-3.75
X6.5Y-3.85
X6.5Y-3.95
X6.5Y-4.05
X6.5Y-4.15
X6.5Y-4.25
X6.5Y-4.35
X6.5Y-4.45
X6.5Y-4.55
X7.5Y-3.65
X7.7Y-3.65
X4.7Y-2.925
X4.9Y-2.925
X6.1Y-2.15
X6.1Y-2.25
X6.1Y-2.35
X6.1Y-2.45
X6.1Y-2.55
X6.1Y-2.65
X6.1Y-2.75
X6.4Y-2.15
X6.4Y-2.25
X6.4Y-2.35
X6.4Y-2.45
X6.4Y-2.55
X6.4Y-2.65
X6.4Y-2.75
X6.7Y-4.75
X6.9Y-4.75
X6.1Y-2.95
X6.3Y-2.95
X6.0Y-2.45
X6.0Y-2.75
X7.5Y-3.85
X7.5Y-3.95
X7.5Y-4.05
X7.5Y-4.15
X7.5Y-4.25
X7.5Y-4.35
X7.5Y-4.45
X7.5Y-4.55
X7.8Y-3.85
X7.8Y-3.95
X7.8Y-4.05
X7.8Y-4.15
X7.8Y-4.25
X7.8Y-4.35
X7.8Y-4.45
X7.8Y-4.55
X6.6Y-2.15
X6.6Y-2.25
X6.6Y-2.35
X6.6Y-2.45
X6.6Y-2.55
X6.6Y-2.65
X6.6Y-2.75
X6.9Y-2.15
X6.9Y-2.25
X6.9Y-2.35
X6.9Y-2.45
X6.9Y-2.55
X6.9Y-2.65
X6.9Y-2.75
X7.4Y-3.55
X7.4Y-3.85
X5.0Y-4.25
X5.0Y-4.55
X7.5Y-4.75
X7.7Y-4.75
X6.5Y-2.45
X6.5Y-2.75
X4.3Y-3.45
X4.3Y-3.55
X4.3Y-3.65
X4.3Y-3.75
X4.3Y-3.85
X4.3Y-3.95
X4.3Y-4.05
X4.3Y-4.15
X4.3Y-4.25
X4.3Y-4.35
X4.3Y-4.45
X4.3Y-4.55
X4.9Y-3.45
X4.9Y-3.55
X4.9Y-3.65
X4.9Y-3.75
X4.9Y-3.85
X4.9Y-3.95
X4.9Y-4.05
X4.9Y-4.15
X4.9Y-4.25
X4.9Y-4.35
X4.9Y-4.45
X4.9Y-4.55
T5
X4.4Y-2.575
X4.4Y-2.675
X4.4Y-2.775
X4.4Y-2.975
X4.4Y-3.075
T6
X5.6Y-4.95
X5.6Y-5.05
X5.7Y-4.95
X5.7Y-5.05
X5.8Y-4.95
X5.8Y-5.05
X5.9Y-4.95
X5.9Y-5.05
X6.0Y-4.95
X6.0Y-5.05
X6.1Y-4.95
X6.1Y-5.05
X6.2Y-4.95
X6.2Y-5.05
X6.3Y-4.95
X6.3Y-5.05
X6.4Y-4.95
X6.4Y-5.05
X6.5Y-4.95
X6.5Y-5.05
X6.6Y-4.95
X6.6Y-5.05
X6.7Y-4.95
X6.7Y-5.05
X6.8Y-4.95
X6.8Y-5.05
X6.9Y-4.95
X6.9Y-5.05
X7.0Y-4.95
X7.0Y-5.05
X7.1Y-4.95
X7.1Y-5.05
X7.2Y-4.95
X7.2Y-5.05
X7.3Y-4.95
X7.3Y-5.05
X7.4Y-4.95
X7.4Y-5.05
X7.5Y-4.95
X7.5Y-5.05
X7.7Y-2.65
X7.8Y-2.65
X7.7Y-2.45
X7.8Y-2.45
X7.3Y-3.075
X7.3Y-3.175
X7.3Y-3.275
X4.6Y-2.1
X4.6Y-2.2
X4.7Y-2.1
X4.7Y-2.2
X4.8Y-2.1
X4.8Y-2.2
X4.9Y-2.1
X4.9Y-2.2
X5.0Y-2.1
X5.0Y-2.2
X5.1Y-2.1
X5.1Y-2.2
X5.2Y-2.1
X5.2Y-2.2
X5.3Y-2.1
X5.3Y-2.2
X5.4Y-2.1
X5.4Y-2.2
X5.5Y-2.1
X5.5Y-2.2
X5.6Y-2.1
X5.6Y-2.2
X5.7Y-2.1
X5.7Y-2.2
X5.8Y-2.1
X5.8Y-2.2
X7.1Y-3.075
X7.1Y-3.175
X7.1Y-3.275
X7.7Y-2.55
X7.8Y-2.55
X6.7Y-3.075
X6.7Y-3.175
X6.7Y-3.275
X6.9Y-3.075
X6.9Y-3.175
X6.9Y-3.275
T7
X4.2283Y-4.9528
X4.2283Y-2.1969
X7.7717Y-4.9528
X7.7717Y-2.1969
T0
M30
