%TF.GenerationSoftware,KiCad,Pcbnew,(5.1.8)-1*%
%TF.CreationDate,2021-11-24T12:27:13-08:00*%
%TF.ProjectId,Mini8085Ext,4d696e69-3830-4383-9545-78742e6b6963,rev?*%
%TF.SameCoordinates,Original*%
%TF.FileFunction,Soldermask,Bot*%
%TF.FilePolarity,Negative*%
%FSLAX46Y46*%
G04 Gerber Fmt 4.6, Leading zero omitted, Abs format (unit mm)*
G04 Created by KiCad (PCBNEW (5.1.8)-1) date 2021-11-24 12:27:13*
%MOMM*%
%LPD*%
G01*
G04 APERTURE LIST*
%ADD10C,1.524000*%
%ADD11R,1.524000X1.524000*%
%ADD12C,1.490980*%
%ADD13R,1.490980X1.490980*%
%ADD14C,1.397000*%
%ADD15C,1.400000*%
%ADD16R,1.400000X1.400000*%
%ADD17C,0.800000*%
%ADD18C,6.400000*%
%ADD19R,1.397000X1.397000*%
G04 APERTURE END LIST*
D10*
%TO.C,J4*%
X116840000Y-55880000D03*
X116840000Y-53340000D03*
X119380000Y-55880000D03*
X119380000Y-53340000D03*
X121920000Y-55880000D03*
X121920000Y-53340000D03*
X124460000Y-55880000D03*
X124460000Y-53340000D03*
X127000000Y-55880000D03*
X127000000Y-53340000D03*
X129540000Y-55880000D03*
X129540000Y-53340000D03*
X132080000Y-55880000D03*
X132080000Y-53340000D03*
X134620000Y-55880000D03*
X134620000Y-53340000D03*
X137160000Y-55880000D03*
X137160000Y-53340000D03*
X139700000Y-55880000D03*
X139700000Y-53340000D03*
X142240000Y-55880000D03*
X142240000Y-53340000D03*
X144780000Y-55880000D03*
X144780000Y-53340000D03*
X147320000Y-55880000D03*
D11*
X147320000Y-53340000D03*
%TD*%
D12*
%TO.C,C13*%
X123170000Y-69215000D03*
D13*
X120670000Y-69215000D03*
%TD*%
D10*
%TO.C,J1*%
X198120000Y-62230000D03*
D11*
X195580000Y-62230000D03*
%TD*%
D10*
%TO.C,J2*%
X198120000Y-64770000D03*
D11*
X195580000Y-64770000D03*
%TD*%
D10*
%TO.C,J3*%
X198120000Y-67310000D03*
D11*
X195580000Y-67310000D03*
%TD*%
D10*
%TO.C,J5*%
X190500000Y-125730000D03*
X190500000Y-128270000D03*
X187960000Y-125730000D03*
X187960000Y-128270000D03*
X185420000Y-125730000D03*
X185420000Y-128270000D03*
X182880000Y-125730000D03*
X182880000Y-128270000D03*
X180340000Y-125730000D03*
X180340000Y-128270000D03*
X177800000Y-128270000D03*
X177800000Y-125730000D03*
X175260000Y-128270000D03*
X175260000Y-125730000D03*
X172720000Y-125730000D03*
X172720000Y-128270000D03*
X170180000Y-125730000D03*
X170180000Y-128270000D03*
X167640000Y-125730000D03*
X167640000Y-128270000D03*
X165100000Y-125730000D03*
X165100000Y-128270000D03*
X162560000Y-125730000D03*
X162560000Y-128270000D03*
X160020000Y-125730000D03*
X160020000Y-128270000D03*
X157480000Y-125730000D03*
X157480000Y-128270000D03*
X154940000Y-125730000D03*
X154940000Y-128270000D03*
X152400000Y-125730000D03*
X152400000Y-128270000D03*
X149860000Y-125730000D03*
X149860000Y-128270000D03*
X147320000Y-125730000D03*
X147320000Y-128270000D03*
X144780000Y-125730000D03*
X144780000Y-128270000D03*
X142240000Y-125730000D03*
D11*
X142240000Y-128270000D03*
%TD*%
D10*
%TO.C,JP1*%
X175260000Y-78105000D03*
X175260000Y-80645000D03*
D11*
X175260000Y-83185000D03*
%TD*%
D10*
%TO.C,JP2*%
X170180000Y-78105000D03*
X170180000Y-80645000D03*
D11*
X170180000Y-83185000D03*
%TD*%
D10*
%TO.C,JP3*%
X185420000Y-78105000D03*
X185420000Y-80645000D03*
D11*
X185420000Y-83185000D03*
%TD*%
D10*
%TO.C,JP4*%
X180340000Y-78105000D03*
X180340000Y-80645000D03*
D11*
X180340000Y-83185000D03*
%TD*%
D14*
%TO.C,R1*%
X165100000Y-62230000D03*
X165100000Y-69850000D03*
%TD*%
%TO.C,R2*%
X187960000Y-90170000D03*
X187960000Y-97790000D03*
%TD*%
%TO.C,R3*%
X177800000Y-62230000D03*
X177800000Y-69850000D03*
%TD*%
%TO.C,R5*%
X152400000Y-62230000D03*
X152400000Y-69850000D03*
%TD*%
%TO.C,C1*%
X124460000Y-120650000D03*
X119380000Y-120650000D03*
%TD*%
%TO.C,C2*%
X144780000Y-120650000D03*
X139700000Y-120650000D03*
%TD*%
%TO.C,C3*%
X175260000Y-120650000D03*
X170180000Y-120650000D03*
%TD*%
%TO.C,C4*%
X154940000Y-120650000D03*
X149860000Y-120650000D03*
%TD*%
%TO.C,C6*%
X172720000Y-74930000D03*
X167640000Y-74930000D03*
%TD*%
%TO.C,C7*%
X185420000Y-74930000D03*
X180340000Y-74930000D03*
%TD*%
%TO.C,C8*%
X195580000Y-92710000D03*
X190500000Y-92710000D03*
%TD*%
%TO.C,C9*%
X160020000Y-74930000D03*
X154940000Y-74930000D03*
%TD*%
%TO.C,C10*%
X124460000Y-74295000D03*
X119380000Y-74295000D03*
%TD*%
%TO.C,C11*%
X114300000Y-82550000D03*
X109220000Y-82550000D03*
%TD*%
D12*
%TO.C,C12*%
X123170000Y-79375000D03*
D13*
X120670000Y-79375000D03*
%TD*%
D14*
%TO.C,C5*%
X195580000Y-120650000D03*
X190500000Y-120650000D03*
%TD*%
%TO.C,F1*%
X124460000Y-64135000D03*
X119380000Y-64135000D03*
%TD*%
%TO.C,R4*%
X127000000Y-107950000D03*
X127000000Y-115570000D03*
%TD*%
D15*
%TO.C,U10*%
X111760000Y-65405000D03*
X111760000Y-67945000D03*
X111760000Y-70485000D03*
X111760000Y-75565000D03*
D16*
X111760000Y-78105000D03*
%TD*%
D17*
%TO.C,HOLE1*%
X195702944Y-127497056D03*
X197400000Y-128200000D03*
X199097056Y-127497056D03*
X199800000Y-125800000D03*
X199097056Y-124102944D03*
X197400000Y-123400000D03*
X195702944Y-124102944D03*
X195000000Y-125800000D03*
D18*
X197400000Y-125800000D03*
%TD*%
D17*
%TO.C,HOLE2*%
X105702944Y-127497056D03*
X107400000Y-128200000D03*
X109097056Y-127497056D03*
X109800000Y-125800000D03*
X109097056Y-124102944D03*
X107400000Y-123400000D03*
X105702944Y-124102944D03*
X105000000Y-125800000D03*
D18*
X107400000Y-125800000D03*
%TD*%
D17*
%TO.C,HOLE3*%
X195702944Y-57497056D03*
X197400000Y-58200000D03*
X199097056Y-57497056D03*
X199800000Y-55800000D03*
X199097056Y-54102944D03*
X197400000Y-53400000D03*
X195702944Y-54102944D03*
X195000000Y-55800000D03*
D18*
X197400000Y-55800000D03*
%TD*%
D17*
%TO.C,HOLE4*%
X105702944Y-57497056D03*
X107400000Y-58200000D03*
X109097056Y-57497056D03*
X109800000Y-55800000D03*
X109097056Y-54102944D03*
X107400000Y-53400000D03*
X105702944Y-54102944D03*
X105000000Y-55800000D03*
D18*
X107400000Y-55800000D03*
%TD*%
D14*
%TO.C,U1*%
X109220000Y-115570000D03*
X109220000Y-113030000D03*
X109220000Y-110490000D03*
X109220000Y-107950000D03*
X109220000Y-105410000D03*
X109220000Y-102870000D03*
X109220000Y-100330000D03*
X109220000Y-97790000D03*
X109220000Y-95250000D03*
X109220000Y-92710000D03*
X109220000Y-90170000D03*
X109220000Y-87630000D03*
X124460000Y-87630000D03*
X124460000Y-90170000D03*
X124460000Y-92710000D03*
X124460000Y-95250000D03*
X124460000Y-97790000D03*
X124460000Y-100330000D03*
X124460000Y-102870000D03*
X124460000Y-105410000D03*
X124460000Y-107950000D03*
X124460000Y-110490000D03*
X124460000Y-113030000D03*
D19*
X124460000Y-115570000D03*
%TD*%
D14*
%TO.C,U2*%
X129540000Y-115570000D03*
X129540000Y-113030000D03*
X129540000Y-110490000D03*
X129540000Y-107950000D03*
X129540000Y-105410000D03*
X129540000Y-102870000D03*
X129540000Y-100330000D03*
X129540000Y-97790000D03*
X129540000Y-95250000D03*
X129540000Y-92710000D03*
X129540000Y-90170000D03*
X129540000Y-87630000D03*
X129540000Y-85090000D03*
X129540000Y-82550000D03*
X129540000Y-80010000D03*
X129540000Y-77470000D03*
X129540000Y-74930000D03*
X129540000Y-72390000D03*
X129540000Y-69850000D03*
X129540000Y-67310000D03*
X144780000Y-67310000D03*
X144780000Y-69850000D03*
X144780000Y-72390000D03*
X144780000Y-74930000D03*
X144780000Y-77470000D03*
X144780000Y-80010000D03*
X144780000Y-82550000D03*
X144780000Y-85090000D03*
X144780000Y-87630000D03*
X144780000Y-90170000D03*
X144780000Y-92710000D03*
X144780000Y-95250000D03*
X144780000Y-97790000D03*
X144780000Y-100330000D03*
X144780000Y-102870000D03*
X144780000Y-105410000D03*
X144780000Y-107950000D03*
X144780000Y-110490000D03*
X144780000Y-113030000D03*
D19*
X144780000Y-115570000D03*
%TD*%
D14*
%TO.C,U5*%
X190500000Y-115570000D03*
X190500000Y-113030000D03*
X190500000Y-110490000D03*
X190500000Y-107950000D03*
X190500000Y-105410000D03*
X190500000Y-102870000D03*
X190500000Y-100330000D03*
X190500000Y-97790000D03*
X198120000Y-97790000D03*
X198120000Y-100330000D03*
X198120000Y-102870000D03*
X198120000Y-105410000D03*
X198120000Y-107950000D03*
X198120000Y-110490000D03*
X198120000Y-113030000D03*
D19*
X198120000Y-115570000D03*
%TD*%
D14*
%TO.C,U6*%
X167640000Y-69850000D03*
X167640000Y-67310000D03*
X167640000Y-64770000D03*
X167640000Y-62230000D03*
X167640000Y-59690000D03*
X167640000Y-57150000D03*
X167640000Y-54610000D03*
X175260000Y-54610000D03*
X175260000Y-57150000D03*
X175260000Y-59690000D03*
X175260000Y-62230000D03*
X175260000Y-64770000D03*
X175260000Y-67310000D03*
D19*
X175260000Y-69850000D03*
%TD*%
D14*
%TO.C,U7*%
X180340000Y-69850000D03*
X180340000Y-67310000D03*
X180340000Y-64770000D03*
X180340000Y-62230000D03*
X180340000Y-59690000D03*
X180340000Y-57150000D03*
X180340000Y-54610000D03*
X187960000Y-54610000D03*
X187960000Y-57150000D03*
X187960000Y-59690000D03*
X187960000Y-62230000D03*
X187960000Y-64770000D03*
X187960000Y-67310000D03*
D19*
X187960000Y-69850000D03*
%TD*%
D14*
%TO.C,U8*%
X190500000Y-87630000D03*
X190500000Y-85090000D03*
X190500000Y-82550000D03*
X190500000Y-80010000D03*
X190500000Y-77470000D03*
X190500000Y-74930000D03*
X190500000Y-72390000D03*
X198120000Y-72390000D03*
X198120000Y-74930000D03*
X198120000Y-77470000D03*
X198120000Y-80010000D03*
X198120000Y-82550000D03*
X198120000Y-85090000D03*
D19*
X198120000Y-87630000D03*
%TD*%
D14*
%TO.C,U9*%
X154940000Y-69850000D03*
X154940000Y-67310000D03*
X154940000Y-64770000D03*
X154940000Y-62230000D03*
X154940000Y-59690000D03*
X154940000Y-57150000D03*
X154940000Y-54610000D03*
X162560000Y-54610000D03*
X162560000Y-57150000D03*
X162560000Y-59690000D03*
X162560000Y-62230000D03*
X162560000Y-64770000D03*
X162560000Y-67310000D03*
D19*
X162560000Y-69850000D03*
%TD*%
D14*
%TO.C,U3*%
X170180000Y-115570000D03*
X170180000Y-113030000D03*
X170180000Y-110490000D03*
X170180000Y-107950000D03*
X170180000Y-105410000D03*
X170180000Y-102870000D03*
X170180000Y-100330000D03*
X170180000Y-97790000D03*
X170180000Y-95250000D03*
X170180000Y-92710000D03*
X170180000Y-90170000D03*
X170180000Y-87630000D03*
X185420000Y-87630000D03*
X185420000Y-90170000D03*
X185420000Y-92710000D03*
X185420000Y-95250000D03*
X185420000Y-97790000D03*
X185420000Y-100330000D03*
X185420000Y-102870000D03*
X185420000Y-105410000D03*
X185420000Y-107950000D03*
X185420000Y-110490000D03*
X185420000Y-113030000D03*
D19*
X185420000Y-115570000D03*
%TD*%
D14*
%TO.C,U4*%
X149860000Y-115570000D03*
X149860000Y-113030000D03*
X149860000Y-110490000D03*
X149860000Y-107950000D03*
X149860000Y-105410000D03*
X149860000Y-102870000D03*
X149860000Y-100330000D03*
X149860000Y-97790000D03*
X149860000Y-95250000D03*
X149860000Y-92710000D03*
X149860000Y-90170000D03*
X149860000Y-87630000D03*
X149860000Y-85090000D03*
X149860000Y-82550000D03*
X165100000Y-82550000D03*
X165100000Y-85090000D03*
X165100000Y-87630000D03*
X165100000Y-90170000D03*
X165100000Y-92710000D03*
X165100000Y-95250000D03*
X165100000Y-97790000D03*
X165100000Y-100330000D03*
X165100000Y-102870000D03*
X165100000Y-105410000D03*
X165100000Y-107950000D03*
X165100000Y-110490000D03*
X165100000Y-113030000D03*
D19*
X165100000Y-115570000D03*
%TD*%
M02*
