%TF.GenerationSoftware,KiCad,Pcbnew,(5.1.8)-1*%
%TF.CreationDate,2021-11-24T12:27:13-08:00*%
%TF.ProjectId,Mini8085Ext,4d696e69-3830-4383-9545-78742e6b6963,rev?*%
%TF.SameCoordinates,Original*%
%TF.FileFunction,Legend,Top*%
%TF.FilePolarity,Positive*%
%FSLAX46Y46*%
G04 Gerber Fmt 4.6, Leading zero omitted, Abs format (unit mm)*
G04 Created by KiCad (PCBNEW (5.1.8)-1) date 2021-11-24 12:27:13*
%MOMM*%
%LPD*%
G01*
G04 APERTURE LIST*
%ADD10C,0.150000*%
%ADD11C,0.120000*%
%ADD12C,0.225000*%
G04 APERTURE END LIST*
D10*
X106783214Y-118425476D02*
X107592738Y-118425476D01*
X107687976Y-118473095D01*
X107735595Y-118520714D01*
X107783214Y-118615952D01*
X107783214Y-118758809D01*
X107735595Y-118854047D01*
X107402261Y-118425476D02*
X107449880Y-118520714D01*
X107449880Y-118711190D01*
X107402261Y-118806428D01*
X107354642Y-118854047D01*
X107259404Y-118901666D01*
X106973690Y-118901666D01*
X106878452Y-118854047D01*
X106830833Y-118806428D01*
X106783214Y-118711190D01*
X106783214Y-118520714D01*
X106830833Y-118425476D01*
X107449880Y-117949285D02*
X106783214Y-117949285D01*
X106449880Y-117949285D02*
X106497500Y-117996904D01*
X106545119Y-117949285D01*
X106497500Y-117901666D01*
X106449880Y-117949285D01*
X106545119Y-117949285D01*
X106783214Y-117615952D02*
X106783214Y-117235000D01*
X106449880Y-117473095D02*
X107307023Y-117473095D01*
X107402261Y-117425476D01*
X107449880Y-117330238D01*
X107449880Y-117235000D01*
X107449880Y-116901666D02*
X106449880Y-116901666D01*
X107449880Y-116473095D02*
X106926071Y-116473095D01*
X106830833Y-116520714D01*
X106783214Y-116615952D01*
X106783214Y-116758809D01*
X106830833Y-116854047D01*
X106878452Y-116901666D01*
X106783214Y-115568333D02*
X107449880Y-115568333D01*
X106783214Y-115996904D02*
X107307023Y-115996904D01*
X107402261Y-115949285D01*
X107449880Y-115854047D01*
X107449880Y-115711190D01*
X107402261Y-115615952D01*
X107354642Y-115568333D01*
X107449880Y-115092142D02*
X106449880Y-115092142D01*
X106830833Y-115092142D02*
X106783214Y-114996904D01*
X106783214Y-114806428D01*
X106830833Y-114711190D01*
X106878452Y-114663571D01*
X106973690Y-114615952D01*
X107259404Y-114615952D01*
X107354642Y-114663571D01*
X107402261Y-114711190D01*
X107449880Y-114806428D01*
X107449880Y-114996904D01*
X107402261Y-115092142D01*
X107354642Y-114187380D02*
X107402261Y-114139761D01*
X107449880Y-114187380D01*
X107402261Y-114235000D01*
X107354642Y-114187380D01*
X107449880Y-114187380D01*
X107402261Y-113282619D02*
X107449880Y-113377857D01*
X107449880Y-113568333D01*
X107402261Y-113663571D01*
X107354642Y-113711190D01*
X107259404Y-113758809D01*
X106973690Y-113758809D01*
X106878452Y-113711190D01*
X106830833Y-113663571D01*
X106783214Y-113568333D01*
X106783214Y-113377857D01*
X106830833Y-113282619D01*
X107449880Y-112711190D02*
X107402261Y-112806428D01*
X107354642Y-112854047D01*
X107259404Y-112901666D01*
X106973690Y-112901666D01*
X106878452Y-112854047D01*
X106830833Y-112806428D01*
X106783214Y-112711190D01*
X106783214Y-112568333D01*
X106830833Y-112473095D01*
X106878452Y-112425476D01*
X106973690Y-112377857D01*
X107259404Y-112377857D01*
X107354642Y-112425476D01*
X107402261Y-112473095D01*
X107449880Y-112568333D01*
X107449880Y-112711190D01*
X107449880Y-111949285D02*
X106783214Y-111949285D01*
X106878452Y-111949285D02*
X106830833Y-111901666D01*
X106783214Y-111806428D01*
X106783214Y-111663571D01*
X106830833Y-111568333D01*
X106926071Y-111520714D01*
X107449880Y-111520714D01*
X106926071Y-111520714D02*
X106830833Y-111473095D01*
X106783214Y-111377857D01*
X106783214Y-111235000D01*
X106830833Y-111139761D01*
X106926071Y-111092142D01*
X107449880Y-111092142D01*
X106402261Y-109901666D02*
X107687976Y-110758809D01*
X107402261Y-109615952D02*
X107449880Y-109520714D01*
X107449880Y-109330238D01*
X107402261Y-109235000D01*
X107307023Y-109187380D01*
X107259404Y-109187380D01*
X107164166Y-109235000D01*
X107116547Y-109330238D01*
X107116547Y-109473095D01*
X107068928Y-109568333D01*
X106973690Y-109615952D01*
X106926071Y-109615952D01*
X106830833Y-109568333D01*
X106783214Y-109473095D01*
X106783214Y-109330238D01*
X106830833Y-109235000D01*
X107449880Y-108758809D02*
X106449880Y-108758809D01*
X107068928Y-108663571D02*
X107449880Y-108377857D01*
X106783214Y-108377857D02*
X107164166Y-108758809D01*
X107449880Y-107949285D02*
X106783214Y-107949285D01*
X106449880Y-107949285D02*
X106497500Y-107996904D01*
X106545119Y-107949285D01*
X106497500Y-107901666D01*
X106449880Y-107949285D01*
X106545119Y-107949285D01*
X107402261Y-107520714D02*
X107449880Y-107425476D01*
X107449880Y-107235000D01*
X107402261Y-107139761D01*
X107307023Y-107092142D01*
X107259404Y-107092142D01*
X107164166Y-107139761D01*
X107116547Y-107235000D01*
X107116547Y-107377857D01*
X107068928Y-107473095D01*
X106973690Y-107520714D01*
X106926071Y-107520714D01*
X106830833Y-107473095D01*
X106783214Y-107377857D01*
X106783214Y-107235000D01*
X106830833Y-107139761D01*
X107402261Y-106282619D02*
X107449880Y-106377857D01*
X107449880Y-106568333D01*
X107402261Y-106663571D01*
X107307023Y-106711190D01*
X106926071Y-106711190D01*
X106830833Y-106663571D01*
X106783214Y-106568333D01*
X106783214Y-106377857D01*
X106830833Y-106282619D01*
X106926071Y-106235000D01*
X107021309Y-106235000D01*
X107116547Y-106711190D01*
X107449880Y-105663571D02*
X107402261Y-105758809D01*
X107307023Y-105806428D01*
X106449880Y-105806428D01*
X107402261Y-104901666D02*
X107449880Y-104996904D01*
X107449880Y-105187380D01*
X107402261Y-105282619D01*
X107307023Y-105330238D01*
X106926071Y-105330238D01*
X106830833Y-105282619D01*
X106783214Y-105187380D01*
X106783214Y-104996904D01*
X106830833Y-104901666D01*
X106926071Y-104854047D01*
X107021309Y-104854047D01*
X107116547Y-105330238D01*
X106783214Y-104520714D02*
X107449880Y-104282619D01*
X106783214Y-104044523D01*
X106402261Y-102949285D02*
X107687976Y-103806428D01*
X107449880Y-102615952D02*
X106783214Y-102615952D01*
X106878452Y-102615952D02*
X106830833Y-102568333D01*
X106783214Y-102473095D01*
X106783214Y-102330238D01*
X106830833Y-102235000D01*
X106926071Y-102187380D01*
X107449880Y-102187380D01*
X106926071Y-102187380D02*
X106830833Y-102139761D01*
X106783214Y-102044523D01*
X106783214Y-101901666D01*
X106830833Y-101806428D01*
X106926071Y-101758809D01*
X107449880Y-101758809D01*
X107449880Y-101282619D02*
X106783214Y-101282619D01*
X106449880Y-101282619D02*
X106497500Y-101330238D01*
X106545119Y-101282619D01*
X106497500Y-101235000D01*
X106449880Y-101282619D01*
X106545119Y-101282619D01*
X106783214Y-100806428D02*
X107449880Y-100806428D01*
X106878452Y-100806428D02*
X106830833Y-100758809D01*
X106783214Y-100663571D01*
X106783214Y-100520714D01*
X106830833Y-100425476D01*
X106926071Y-100377857D01*
X107449880Y-100377857D01*
X107449880Y-99901666D02*
X106783214Y-99901666D01*
X106449880Y-99901666D02*
X106497500Y-99949285D01*
X106545119Y-99901666D01*
X106497500Y-99854047D01*
X106449880Y-99901666D01*
X106545119Y-99901666D01*
X107449880Y-99425476D02*
X106783214Y-99425476D01*
X106878452Y-99425476D02*
X106830833Y-99377857D01*
X106783214Y-99282619D01*
X106783214Y-99139761D01*
X106830833Y-99044523D01*
X106926071Y-98996904D01*
X107449880Y-98996904D01*
X106926071Y-98996904D02*
X106830833Y-98949285D01*
X106783214Y-98854047D01*
X106783214Y-98711190D01*
X106830833Y-98615952D01*
X106926071Y-98568333D01*
X107449880Y-98568333D01*
X107449880Y-97663571D02*
X106926071Y-97663571D01*
X106830833Y-97711190D01*
X106783214Y-97806428D01*
X106783214Y-97996904D01*
X106830833Y-98092142D01*
X107402261Y-97663571D02*
X107449880Y-97758809D01*
X107449880Y-97996904D01*
X107402261Y-98092142D01*
X107307023Y-98139761D01*
X107211785Y-98139761D01*
X107116547Y-98092142D01*
X107068928Y-97996904D01*
X107068928Y-97758809D01*
X107021309Y-97663571D01*
X107449880Y-97282619D02*
X106783214Y-96758809D01*
X106783214Y-97282619D02*
X107449880Y-96758809D01*
X106878452Y-96235000D02*
X106830833Y-96330238D01*
X106783214Y-96377857D01*
X106687976Y-96425476D01*
X106640357Y-96425476D01*
X106545119Y-96377857D01*
X106497500Y-96330238D01*
X106449880Y-96235000D01*
X106449880Y-96044523D01*
X106497500Y-95949285D01*
X106545119Y-95901666D01*
X106640357Y-95854047D01*
X106687976Y-95854047D01*
X106783214Y-95901666D01*
X106830833Y-95949285D01*
X106878452Y-96044523D01*
X106878452Y-96235000D01*
X106926071Y-96330238D01*
X106973690Y-96377857D01*
X107068928Y-96425476D01*
X107259404Y-96425476D01*
X107354642Y-96377857D01*
X107402261Y-96330238D01*
X107449880Y-96235000D01*
X107449880Y-96044523D01*
X107402261Y-95949285D01*
X107354642Y-95901666D01*
X107259404Y-95854047D01*
X107068928Y-95854047D01*
X106973690Y-95901666D01*
X106926071Y-95949285D01*
X106878452Y-96044523D01*
X106449880Y-95235000D02*
X106449880Y-95139761D01*
X106497500Y-95044523D01*
X106545119Y-94996904D01*
X106640357Y-94949285D01*
X106830833Y-94901666D01*
X107068928Y-94901666D01*
X107259404Y-94949285D01*
X107354642Y-94996904D01*
X107402261Y-95044523D01*
X107449880Y-95139761D01*
X107449880Y-95235000D01*
X107402261Y-95330238D01*
X107354642Y-95377857D01*
X107259404Y-95425476D01*
X107068928Y-95473095D01*
X106830833Y-95473095D01*
X106640357Y-95425476D01*
X106545119Y-95377857D01*
X106497500Y-95330238D01*
X106449880Y-95235000D01*
X106878452Y-94330238D02*
X106830833Y-94425476D01*
X106783214Y-94473095D01*
X106687976Y-94520714D01*
X106640357Y-94520714D01*
X106545119Y-94473095D01*
X106497500Y-94425476D01*
X106449880Y-94330238D01*
X106449880Y-94139761D01*
X106497500Y-94044523D01*
X106545119Y-93996904D01*
X106640357Y-93949285D01*
X106687976Y-93949285D01*
X106783214Y-93996904D01*
X106830833Y-94044523D01*
X106878452Y-94139761D01*
X106878452Y-94330238D01*
X106926071Y-94425476D01*
X106973690Y-94473095D01*
X107068928Y-94520714D01*
X107259404Y-94520714D01*
X107354642Y-94473095D01*
X107402261Y-94425476D01*
X107449880Y-94330238D01*
X107449880Y-94139761D01*
X107402261Y-94044523D01*
X107354642Y-93996904D01*
X107259404Y-93949285D01*
X107068928Y-93949285D01*
X106973690Y-93996904D01*
X106926071Y-94044523D01*
X106878452Y-94139761D01*
X106449880Y-93044523D02*
X106449880Y-93520714D01*
X106926071Y-93568333D01*
X106878452Y-93520714D01*
X106830833Y-93425476D01*
X106830833Y-93187380D01*
X106878452Y-93092142D01*
X106926071Y-93044523D01*
X107021309Y-92996904D01*
X107259404Y-92996904D01*
X107354642Y-93044523D01*
X107402261Y-93092142D01*
X107449880Y-93187380D01*
X107449880Y-93425476D01*
X107402261Y-93520714D01*
X107354642Y-93568333D01*
X107068928Y-92568333D02*
X107068928Y-91806428D01*
X107449880Y-90901666D02*
X106926071Y-90901666D01*
X106830833Y-90949285D01*
X106783214Y-91044523D01*
X106783214Y-91235000D01*
X106830833Y-91330238D01*
X107402261Y-90901666D02*
X107449880Y-90996904D01*
X107449880Y-91235000D01*
X107402261Y-91330238D01*
X107307023Y-91377857D01*
X107211785Y-91377857D01*
X107116547Y-91330238D01*
X107068928Y-91235000D01*
X107068928Y-90996904D01*
X107021309Y-90901666D01*
X106783214Y-90425476D02*
X107783214Y-90425476D01*
X106830833Y-90425476D02*
X106783214Y-90330238D01*
X106783214Y-90139761D01*
X106830833Y-90044523D01*
X106878452Y-89996904D01*
X106973690Y-89949285D01*
X107259404Y-89949285D01*
X107354642Y-89996904D01*
X107402261Y-90044523D01*
X107449880Y-90139761D01*
X107449880Y-90330238D01*
X107402261Y-90425476D01*
X106783214Y-89092142D02*
X107449880Y-89092142D01*
X106783214Y-89520714D02*
X107307023Y-89520714D01*
X107402261Y-89473095D01*
X107449880Y-89377857D01*
X107449880Y-89235000D01*
X107402261Y-89139761D01*
X107354642Y-89092142D01*
X107068928Y-88615952D02*
X107068928Y-87854047D01*
X107402261Y-86996904D02*
X107449880Y-87092142D01*
X107449880Y-87282619D01*
X107402261Y-87377857D01*
X107307023Y-87425476D01*
X106926071Y-87425476D01*
X106830833Y-87377857D01*
X106783214Y-87282619D01*
X106783214Y-87092142D01*
X106830833Y-86996904D01*
X106926071Y-86949285D01*
X107021309Y-86949285D01*
X107116547Y-87425476D01*
X107449880Y-86615952D02*
X106783214Y-86092142D01*
X106783214Y-86615952D02*
X107449880Y-86092142D01*
X106783214Y-85854047D02*
X106783214Y-85473095D01*
X106449880Y-85711190D02*
X107307023Y-85711190D01*
X107402261Y-85663571D01*
X107449880Y-85568333D01*
X107449880Y-85473095D01*
X127198333Y-93531889D02*
X127150714Y-93568794D01*
X127007857Y-93636651D01*
X126912619Y-93667604D01*
X126769761Y-93692604D01*
X126531666Y-93705699D01*
X126341190Y-93681889D01*
X126103095Y-93609270D01*
X125960238Y-93548556D01*
X125865000Y-93493794D01*
X125722142Y-93390223D01*
X125674523Y-93341413D01*
X126531666Y-93148556D02*
X126531666Y-92719985D01*
X126817380Y-93269985D02*
X125817380Y-92844985D01*
X126817380Y-92669985D01*
X126817380Y-92369985D02*
X126150714Y-92286651D01*
X126245952Y-92298556D02*
X126198333Y-92249747D01*
X126150714Y-92158080D01*
X126150714Y-92029508D01*
X126198333Y-91949747D01*
X126293571Y-91918794D01*
X126817380Y-91984270D01*
X126293571Y-91918794D02*
X126198333Y-91864032D01*
X126150714Y-91772366D01*
X126150714Y-91643794D01*
X126198333Y-91564032D01*
X126293571Y-91533080D01*
X126817380Y-91598556D01*
X126817380Y-91127127D02*
X126817380Y-90955699D01*
X126769761Y-90864032D01*
X126722142Y-90815223D01*
X126579285Y-90711651D01*
X126388809Y-90644985D01*
X126007857Y-90597366D01*
X125912619Y-90628318D01*
X125865000Y-90665223D01*
X125817380Y-90744985D01*
X125817380Y-90916413D01*
X125865000Y-91008080D01*
X125912619Y-91056889D01*
X126007857Y-91111651D01*
X126245952Y-91141413D01*
X126341190Y-91110461D01*
X126388809Y-91073556D01*
X126436428Y-90993794D01*
X126436428Y-90822366D01*
X126388809Y-90730699D01*
X126341190Y-90681889D01*
X126245952Y-90627127D01*
X125817380Y-89759270D02*
X125817380Y-90187842D01*
X126293571Y-90290223D01*
X126245952Y-90241413D01*
X126198333Y-90149747D01*
X126198333Y-89935461D01*
X126245952Y-89855699D01*
X126293571Y-89818794D01*
X126388809Y-89787842D01*
X126626904Y-89817604D01*
X126722142Y-89872366D01*
X126769761Y-89921175D01*
X126817380Y-90012842D01*
X126817380Y-90227127D01*
X126769761Y-90306889D01*
X126722142Y-90343794D01*
X126817380Y-88984270D02*
X126817380Y-89498556D01*
X126817380Y-89241413D02*
X125817380Y-89116413D01*
X125960238Y-89219985D01*
X126055476Y-89317604D01*
X126103095Y-89409270D01*
X126817380Y-88127127D02*
X126817380Y-88641413D01*
X126817380Y-88384270D02*
X125817380Y-88259270D01*
X125960238Y-88362842D01*
X126055476Y-88460461D01*
X126103095Y-88552127D01*
X126531666Y-87748556D02*
X126531666Y-87319985D01*
X126817380Y-87869985D02*
X125817380Y-87444985D01*
X126817380Y-87269985D01*
X127198333Y-87103318D02*
X127150714Y-87054508D01*
X127007857Y-86950937D01*
X126912619Y-86896175D01*
X126769761Y-86835461D01*
X126531666Y-86762842D01*
X126341190Y-86739032D01*
X126103095Y-86752127D01*
X125960238Y-86777127D01*
X125865000Y-86808080D01*
X125722142Y-86875937D01*
X125674523Y-86912842D01*
D11*
X153670000Y-53975000D02*
X153035000Y-53340000D01*
X153670000Y-52705000D02*
X153670000Y-53975000D01*
X153035000Y-53340000D02*
X153670000Y-52705000D01*
X193675000Y-60325000D02*
X192405000Y-59055000D01*
X168275000Y-85090000D02*
X167005000Y-86360000D01*
X168275000Y-85090000D02*
X168275000Y-85725000D01*
X167640000Y-85090000D02*
X168275000Y-85090000D01*
X193675000Y-59690000D02*
X193675000Y-60325000D01*
X193675000Y-60325000D02*
X193040000Y-60325000D01*
D10*
X105259642Y-76080119D02*
X105307261Y-76127738D01*
X105354880Y-76270595D01*
X105354880Y-76365833D01*
X105307261Y-76508690D01*
X105212023Y-76603928D01*
X105116785Y-76651547D01*
X104926309Y-76699166D01*
X104783452Y-76699166D01*
X104592976Y-76651547D01*
X104497738Y-76603928D01*
X104402500Y-76508690D01*
X104354880Y-76365833D01*
X104354880Y-76270595D01*
X104402500Y-76127738D01*
X104450119Y-76080119D01*
X105354880Y-75508690D02*
X105307261Y-75603928D01*
X105259642Y-75651547D01*
X105164404Y-75699166D01*
X104878690Y-75699166D01*
X104783452Y-75651547D01*
X104735833Y-75603928D01*
X104688214Y-75508690D01*
X104688214Y-75365833D01*
X104735833Y-75270595D01*
X104783452Y-75222976D01*
X104878690Y-75175357D01*
X105164404Y-75175357D01*
X105259642Y-75222976D01*
X105307261Y-75270595D01*
X105354880Y-75365833D01*
X105354880Y-75508690D01*
X104688214Y-74746785D02*
X105688214Y-74746785D01*
X104735833Y-74746785D02*
X104688214Y-74651547D01*
X104688214Y-74461071D01*
X104735833Y-74365833D01*
X104783452Y-74318214D01*
X104878690Y-74270595D01*
X105164404Y-74270595D01*
X105259642Y-74318214D01*
X105307261Y-74365833D01*
X105354880Y-74461071D01*
X105354880Y-74651547D01*
X105307261Y-74746785D01*
X104688214Y-73937261D02*
X105354880Y-73699166D01*
X104688214Y-73461071D02*
X105354880Y-73699166D01*
X105592976Y-73794404D01*
X105640595Y-73842023D01*
X105688214Y-73937261D01*
X105354880Y-73080119D02*
X104688214Y-73080119D01*
X104878690Y-73080119D02*
X104783452Y-73032500D01*
X104735833Y-72984880D01*
X104688214Y-72889642D01*
X104688214Y-72794404D01*
X105354880Y-72461071D02*
X104688214Y-72461071D01*
X104354880Y-72461071D02*
X104402500Y-72508690D01*
X104450119Y-72461071D01*
X104402500Y-72413452D01*
X104354880Y-72461071D01*
X104450119Y-72461071D01*
X104688214Y-71556309D02*
X105497738Y-71556309D01*
X105592976Y-71603928D01*
X105640595Y-71651547D01*
X105688214Y-71746785D01*
X105688214Y-71889642D01*
X105640595Y-71984880D01*
X105307261Y-71556309D02*
X105354880Y-71651547D01*
X105354880Y-71842023D01*
X105307261Y-71937261D01*
X105259642Y-71984880D01*
X105164404Y-72032500D01*
X104878690Y-72032500D01*
X104783452Y-71984880D01*
X104735833Y-71937261D01*
X104688214Y-71842023D01*
X104688214Y-71651547D01*
X104735833Y-71556309D01*
X105354880Y-71080119D02*
X104354880Y-71080119D01*
X105354880Y-70651547D02*
X104831071Y-70651547D01*
X104735833Y-70699166D01*
X104688214Y-70794404D01*
X104688214Y-70937261D01*
X104735833Y-71032500D01*
X104783452Y-71080119D01*
X104688214Y-70318214D02*
X104688214Y-69937261D01*
X104354880Y-70175357D02*
X105212023Y-70175357D01*
X105307261Y-70127738D01*
X105354880Y-70032500D01*
X105354880Y-69937261D01*
X105735833Y-68556309D02*
X105688214Y-68603928D01*
X105545357Y-68699166D01*
X105450119Y-68746785D01*
X105307261Y-68794404D01*
X105069166Y-68842023D01*
X104878690Y-68842023D01*
X104640595Y-68794404D01*
X104497738Y-68746785D01*
X104402500Y-68699166D01*
X104259642Y-68603928D01*
X104212023Y-68556309D01*
X105259642Y-67603928D02*
X105307261Y-67651547D01*
X105354880Y-67794404D01*
X105354880Y-67889642D01*
X105307261Y-68032500D01*
X105212023Y-68127738D01*
X105116785Y-68175357D01*
X104926309Y-68222976D01*
X104783452Y-68222976D01*
X104592976Y-68175357D01*
X104497738Y-68127738D01*
X104402500Y-68032500D01*
X104354880Y-67889642D01*
X104354880Y-67794404D01*
X104402500Y-67651547D01*
X104450119Y-67603928D01*
X105735833Y-67270595D02*
X105688214Y-67222976D01*
X105545357Y-67127738D01*
X105450119Y-67080119D01*
X105307261Y-67032500D01*
X105069166Y-66984880D01*
X104878690Y-66984880D01*
X104640595Y-67032500D01*
X104497738Y-67080119D01*
X104402500Y-67127738D01*
X104259642Y-67222976D01*
X104212023Y-67270595D01*
X104450119Y-65794404D02*
X104402500Y-65746785D01*
X104354880Y-65651547D01*
X104354880Y-65413452D01*
X104402500Y-65318214D01*
X104450119Y-65270595D01*
X104545357Y-65222976D01*
X104640595Y-65222976D01*
X104783452Y-65270595D01*
X105354880Y-65842023D01*
X105354880Y-65222976D01*
X104354880Y-64603928D02*
X104354880Y-64508690D01*
X104402500Y-64413452D01*
X104450119Y-64365833D01*
X104545357Y-64318214D01*
X104735833Y-64270595D01*
X104973928Y-64270595D01*
X105164404Y-64318214D01*
X105259642Y-64365833D01*
X105307261Y-64413452D01*
X105354880Y-64508690D01*
X105354880Y-64603928D01*
X105307261Y-64699166D01*
X105259642Y-64746785D01*
X105164404Y-64794404D01*
X104973928Y-64842023D01*
X104735833Y-64842023D01*
X104545357Y-64794404D01*
X104450119Y-64746785D01*
X104402500Y-64699166D01*
X104354880Y-64603928D01*
X104450119Y-63889642D02*
X104402500Y-63842023D01*
X104354880Y-63746785D01*
X104354880Y-63508690D01*
X104402500Y-63413452D01*
X104450119Y-63365833D01*
X104545357Y-63318214D01*
X104640595Y-63318214D01*
X104783452Y-63365833D01*
X105354880Y-63937261D01*
X105354880Y-63318214D01*
X105354880Y-62365833D02*
X105354880Y-62937261D01*
X105354880Y-62651547D02*
X104354880Y-62651547D01*
X104497738Y-62746785D01*
X104592976Y-62842023D01*
X104640595Y-62937261D01*
X106957261Y-74842023D02*
X107004880Y-74699166D01*
X107004880Y-74461071D01*
X106957261Y-74365833D01*
X106909642Y-74318214D01*
X106814404Y-74270595D01*
X106719166Y-74270595D01*
X106623928Y-74318214D01*
X106576309Y-74365833D01*
X106528690Y-74461071D01*
X106481071Y-74651547D01*
X106433452Y-74746785D01*
X106385833Y-74794404D01*
X106290595Y-74842023D01*
X106195357Y-74842023D01*
X106100119Y-74794404D01*
X106052500Y-74746785D01*
X106004880Y-74651547D01*
X106004880Y-74413452D01*
X106052500Y-74270595D01*
X106957261Y-73461071D02*
X107004880Y-73556309D01*
X107004880Y-73746785D01*
X106957261Y-73842023D01*
X106862023Y-73889642D01*
X106481071Y-73889642D01*
X106385833Y-73842023D01*
X106338214Y-73746785D01*
X106338214Y-73556309D01*
X106385833Y-73461071D01*
X106481071Y-73413452D01*
X106576309Y-73413452D01*
X106671547Y-73889642D01*
X107004880Y-72984880D02*
X106338214Y-72984880D01*
X106528690Y-72984880D02*
X106433452Y-72937261D01*
X106385833Y-72889642D01*
X106338214Y-72794404D01*
X106338214Y-72699166D01*
X106338214Y-71937261D02*
X107147738Y-71937261D01*
X107242976Y-71984880D01*
X107290595Y-72032500D01*
X107338214Y-72127738D01*
X107338214Y-72270595D01*
X107290595Y-72365833D01*
X106957261Y-71937261D02*
X107004880Y-72032500D01*
X107004880Y-72222976D01*
X106957261Y-72318214D01*
X106909642Y-72365833D01*
X106814404Y-72413452D01*
X106528690Y-72413452D01*
X106433452Y-72365833D01*
X106385833Y-72318214D01*
X106338214Y-72222976D01*
X106338214Y-72032500D01*
X106385833Y-71937261D01*
X106957261Y-71080119D02*
X107004880Y-71175357D01*
X107004880Y-71365833D01*
X106957261Y-71461071D01*
X106862023Y-71508690D01*
X106481071Y-71508690D01*
X106385833Y-71461071D01*
X106338214Y-71365833D01*
X106338214Y-71175357D01*
X106385833Y-71080119D01*
X106481071Y-71032500D01*
X106576309Y-71032500D01*
X106671547Y-71508690D01*
X106338214Y-70699166D02*
X107004880Y-70461071D01*
X106338214Y-70222976D02*
X107004880Y-70461071D01*
X107242976Y-70556309D01*
X107290595Y-70603928D01*
X107338214Y-70699166D01*
X107004880Y-69080119D02*
X106004880Y-69080119D01*
X107004880Y-68508690D02*
X106433452Y-68937261D01*
X106004880Y-68508690D02*
X106576309Y-69080119D01*
X107004880Y-68080119D02*
X106338214Y-68080119D01*
X106004880Y-68080119D02*
X106052500Y-68127738D01*
X106100119Y-68080119D01*
X106052500Y-68032500D01*
X106004880Y-68080119D01*
X106100119Y-68080119D01*
X106957261Y-67651547D02*
X107004880Y-67556309D01*
X107004880Y-67365833D01*
X106957261Y-67270595D01*
X106862023Y-67222976D01*
X106814404Y-67222976D01*
X106719166Y-67270595D01*
X106671547Y-67365833D01*
X106671547Y-67508690D01*
X106623928Y-67603928D01*
X106528690Y-67651547D01*
X106481071Y-67651547D01*
X106385833Y-67603928D01*
X106338214Y-67508690D01*
X106338214Y-67365833D01*
X106385833Y-67270595D01*
X106957261Y-66413452D02*
X107004880Y-66508690D01*
X107004880Y-66699166D01*
X106957261Y-66794404D01*
X106862023Y-66842023D01*
X106481071Y-66842023D01*
X106385833Y-66794404D01*
X106338214Y-66699166D01*
X106338214Y-66508690D01*
X106385833Y-66413452D01*
X106481071Y-66365833D01*
X106576309Y-66365833D01*
X106671547Y-66842023D01*
X107004880Y-65794404D02*
X106957261Y-65889642D01*
X106862023Y-65937261D01*
X106004880Y-65937261D01*
X106957261Y-65032500D02*
X107004880Y-65127738D01*
X107004880Y-65318214D01*
X106957261Y-65413452D01*
X106862023Y-65461071D01*
X106481071Y-65461071D01*
X106385833Y-65413452D01*
X106338214Y-65318214D01*
X106338214Y-65127738D01*
X106385833Y-65032500D01*
X106481071Y-64984880D01*
X106576309Y-64984880D01*
X106671547Y-65461071D01*
X106338214Y-64651547D02*
X107004880Y-64413452D01*
X106338214Y-64175357D01*
D12*
X105453571Y-118627857D02*
X103953571Y-118627857D01*
X105025000Y-118127857D01*
X103953571Y-117627857D01*
X105453571Y-117627857D01*
X105453571Y-116913571D02*
X104453571Y-116913571D01*
X103953571Y-116913571D02*
X104025000Y-116985000D01*
X104096428Y-116913571D01*
X104025000Y-116842142D01*
X103953571Y-116913571D01*
X104096428Y-116913571D01*
X104453571Y-116199285D02*
X105453571Y-116199285D01*
X104596428Y-116199285D02*
X104525000Y-116127857D01*
X104453571Y-115985000D01*
X104453571Y-115770714D01*
X104525000Y-115627857D01*
X104667857Y-115556428D01*
X105453571Y-115556428D01*
X105453571Y-114842142D02*
X104453571Y-114842142D01*
X103953571Y-114842142D02*
X104025000Y-114913571D01*
X104096428Y-114842142D01*
X104025000Y-114770714D01*
X103953571Y-114842142D01*
X104096428Y-114842142D01*
X105453571Y-114127857D02*
X103953571Y-114127857D01*
X105025000Y-113627857D01*
X103953571Y-113127857D01*
X105453571Y-113127857D01*
X105453571Y-111770714D02*
X104667857Y-111770714D01*
X104525000Y-111842142D01*
X104453571Y-111985000D01*
X104453571Y-112270714D01*
X104525000Y-112413571D01*
X105382142Y-111770714D02*
X105453571Y-111913571D01*
X105453571Y-112270714D01*
X105382142Y-112413571D01*
X105239285Y-112485000D01*
X105096428Y-112485000D01*
X104953571Y-112413571D01*
X104882142Y-112270714D01*
X104882142Y-111913571D01*
X104810714Y-111770714D01*
X105453571Y-111199285D02*
X104453571Y-110413571D01*
X104453571Y-111199285D02*
X105453571Y-110413571D01*
X104596428Y-108485000D02*
X104525000Y-108627857D01*
X104453571Y-108699285D01*
X104310714Y-108770714D01*
X104239285Y-108770714D01*
X104096428Y-108699285D01*
X104025000Y-108627857D01*
X103953571Y-108485000D01*
X103953571Y-108199285D01*
X104025000Y-108056428D01*
X104096428Y-107985000D01*
X104239285Y-107913571D01*
X104310714Y-107913571D01*
X104453571Y-107985000D01*
X104525000Y-108056428D01*
X104596428Y-108199285D01*
X104596428Y-108485000D01*
X104667857Y-108627857D01*
X104739285Y-108699285D01*
X104882142Y-108770714D01*
X105167857Y-108770714D01*
X105310714Y-108699285D01*
X105382142Y-108627857D01*
X105453571Y-108485000D01*
X105453571Y-108199285D01*
X105382142Y-108056428D01*
X105310714Y-107985000D01*
X105167857Y-107913571D01*
X104882142Y-107913571D01*
X104739285Y-107985000D01*
X104667857Y-108056428D01*
X104596428Y-108199285D01*
X103953571Y-106985000D02*
X103953571Y-106842142D01*
X104025000Y-106699285D01*
X104096428Y-106627857D01*
X104239285Y-106556428D01*
X104525000Y-106485000D01*
X104882142Y-106485000D01*
X105167857Y-106556428D01*
X105310714Y-106627857D01*
X105382142Y-106699285D01*
X105453571Y-106842142D01*
X105453571Y-106985000D01*
X105382142Y-107127857D01*
X105310714Y-107199285D01*
X105167857Y-107270714D01*
X104882142Y-107342142D01*
X104525000Y-107342142D01*
X104239285Y-107270714D01*
X104096428Y-107199285D01*
X104025000Y-107127857D01*
X103953571Y-106985000D01*
X104596428Y-105627857D02*
X104525000Y-105770714D01*
X104453571Y-105842142D01*
X104310714Y-105913571D01*
X104239285Y-105913571D01*
X104096428Y-105842142D01*
X104025000Y-105770714D01*
X103953571Y-105627857D01*
X103953571Y-105342142D01*
X104025000Y-105199285D01*
X104096428Y-105127857D01*
X104239285Y-105056428D01*
X104310714Y-105056428D01*
X104453571Y-105127857D01*
X104525000Y-105199285D01*
X104596428Y-105342142D01*
X104596428Y-105627857D01*
X104667857Y-105770714D01*
X104739285Y-105842142D01*
X104882142Y-105913571D01*
X105167857Y-105913571D01*
X105310714Y-105842142D01*
X105382142Y-105770714D01*
X105453571Y-105627857D01*
X105453571Y-105342142D01*
X105382142Y-105199285D01*
X105310714Y-105127857D01*
X105167857Y-105056428D01*
X104882142Y-105056428D01*
X104739285Y-105127857D01*
X104667857Y-105199285D01*
X104596428Y-105342142D01*
X103953571Y-103699285D02*
X103953571Y-104413571D01*
X104667857Y-104485000D01*
X104596428Y-104413571D01*
X104525000Y-104270714D01*
X104525000Y-103913571D01*
X104596428Y-103770714D01*
X104667857Y-103699285D01*
X104810714Y-103627857D01*
X105167857Y-103627857D01*
X105310714Y-103699285D01*
X105382142Y-103770714D01*
X105453571Y-103913571D01*
X105453571Y-104270714D01*
X105382142Y-104413571D01*
X105310714Y-104485000D01*
X104667857Y-101842142D02*
X104667857Y-101342142D01*
X105453571Y-101127857D02*
X105453571Y-101842142D01*
X103953571Y-101842142D01*
X103953571Y-101127857D01*
X105453571Y-100627857D02*
X104453571Y-99842142D01*
X104453571Y-100627857D02*
X105453571Y-99842142D01*
X104453571Y-99485000D02*
X104453571Y-98913571D01*
X103953571Y-99270714D02*
X105239285Y-99270714D01*
X105382142Y-99199285D01*
X105453571Y-99056428D01*
X105453571Y-98913571D01*
X105382142Y-97842142D02*
X105453571Y-97985000D01*
X105453571Y-98270714D01*
X105382142Y-98413571D01*
X105239285Y-98485000D01*
X104667857Y-98485000D01*
X104525000Y-98413571D01*
X104453571Y-98270714D01*
X104453571Y-97985000D01*
X104525000Y-97842142D01*
X104667857Y-97770714D01*
X104810714Y-97770714D01*
X104953571Y-98485000D01*
X104453571Y-97127857D02*
X105453571Y-97127857D01*
X104596428Y-97127857D02*
X104525000Y-97056428D01*
X104453571Y-96913571D01*
X104453571Y-96699285D01*
X104525000Y-96556428D01*
X104667857Y-96485000D01*
X105453571Y-96485000D01*
X105382142Y-95842142D02*
X105453571Y-95699285D01*
X105453571Y-95413571D01*
X105382142Y-95270714D01*
X105239285Y-95199285D01*
X105167857Y-95199285D01*
X105025000Y-95270714D01*
X104953571Y-95413571D01*
X104953571Y-95627857D01*
X104882142Y-95770714D01*
X104739285Y-95842142D01*
X104667857Y-95842142D01*
X104525000Y-95770714D01*
X104453571Y-95627857D01*
X104453571Y-95413571D01*
X104525000Y-95270714D01*
X105453571Y-94556428D02*
X104453571Y-94556428D01*
X103953571Y-94556428D02*
X104025000Y-94627857D01*
X104096428Y-94556428D01*
X104025000Y-94485000D01*
X103953571Y-94556428D01*
X104096428Y-94556428D01*
X105453571Y-93627857D02*
X105382142Y-93770714D01*
X105310714Y-93842142D01*
X105167857Y-93913571D01*
X104739285Y-93913571D01*
X104596428Y-93842142D01*
X104525000Y-93770714D01*
X104453571Y-93627857D01*
X104453571Y-93413571D01*
X104525000Y-93270714D01*
X104596428Y-93199285D01*
X104739285Y-93127857D01*
X105167857Y-93127857D01*
X105310714Y-93199285D01*
X105382142Y-93270714D01*
X105453571Y-93413571D01*
X105453571Y-93627857D01*
X104453571Y-92485000D02*
X105453571Y-92485000D01*
X104596428Y-92485000D02*
X104525000Y-92413571D01*
X104453571Y-92270714D01*
X104453571Y-92056428D01*
X104525000Y-91913571D01*
X104667857Y-91842142D01*
X105453571Y-91842142D01*
X103953571Y-90199285D02*
X105453571Y-89699285D01*
X103953571Y-89199285D01*
X105453571Y-87913571D02*
X105453571Y-88770714D01*
X105453571Y-88342142D02*
X103953571Y-88342142D01*
X104167857Y-88485000D01*
X104310714Y-88627857D01*
X104382142Y-88770714D01*
X105310714Y-87270714D02*
X105382142Y-87199285D01*
X105453571Y-87270714D01*
X105382142Y-87342142D01*
X105310714Y-87270714D01*
X105453571Y-87270714D01*
X105453571Y-85770714D02*
X105453571Y-86627857D01*
X105453571Y-86199285D02*
X103953571Y-86199285D01*
X104167857Y-86342142D01*
X104310714Y-86485000D01*
X104382142Y-86627857D01*
D11*
X105727500Y-80010000D02*
X106997500Y-78740000D01*
X105092500Y-81915000D02*
X106362500Y-80645000D01*
X105727500Y-80645000D02*
X106997500Y-80645000D01*
X105092500Y-80010000D02*
X106362500Y-80010000D01*
X104457500Y-81915000D02*
X105727500Y-81915000D01*
X106997500Y-83185000D02*
X106997500Y-84455000D01*
X105727500Y-81915000D02*
X106997500Y-83185000D01*
X106997500Y-80645000D02*
X105727500Y-81915000D01*
X106362500Y-80010000D02*
X106997500Y-80645000D01*
X106997500Y-79375000D02*
X106362500Y-80010000D01*
X106997500Y-78105000D02*
X106997500Y-79375000D01*
X105092500Y-80010000D02*
X106997500Y-78105000D01*
X105727500Y-80645000D02*
X105092500Y-80010000D01*
X104457500Y-81915000D02*
X105727500Y-80645000D01*
X106997500Y-84455000D02*
X104457500Y-81915000D01*
%TO.C,J4*%
X152400000Y-50800000D02*
X111760000Y-50800000D01*
X111760000Y-58420000D02*
X152400000Y-58420000D01*
X148590000Y-57150000D02*
X115570000Y-57150000D01*
X115570000Y-52070000D02*
X148590000Y-52070000D01*
X147955000Y-49530000D02*
X147320000Y-50165000D01*
X147320000Y-50165000D02*
X146685000Y-49530000D01*
X146685000Y-49530000D02*
X147955000Y-49530000D01*
X111760000Y-58420000D02*
X111760000Y-50800000D01*
X152400000Y-50800000D02*
X152400000Y-58420000D01*
X148590000Y-52070000D02*
X148590000Y-57150000D01*
X115570000Y-57150000D02*
X115570000Y-52070000D01*
%TO.C,C13*%
X125070000Y-69215000D02*
G75*
G03*
X125070000Y-69215000I-3150000J0D01*
G01*
%TO.C,J1*%
X196850000Y-63500000D02*
X194310000Y-63500000D01*
X197485000Y-63500000D02*
X196850000Y-62865000D01*
X198755000Y-63500000D02*
X197485000Y-63500000D01*
X199390000Y-62865000D02*
X198755000Y-63500000D01*
X199390000Y-61595000D02*
X199390000Y-62865000D01*
X198755000Y-60960000D02*
X199390000Y-61595000D01*
X197485000Y-60960000D02*
X198755000Y-60960000D01*
X196850000Y-61595000D02*
X197485000Y-60960000D01*
X194310000Y-60960000D02*
X196850000Y-60960000D01*
X194310000Y-63500000D02*
X194310000Y-60960000D01*
X196850000Y-63500000D02*
X196850000Y-62865000D01*
X196850000Y-61595000D02*
X196850000Y-60960000D01*
%TO.C,J2*%
X196850000Y-66040000D02*
X194310000Y-66040000D01*
X197485000Y-66040000D02*
X196850000Y-65405000D01*
X198755000Y-66040000D02*
X197485000Y-66040000D01*
X199390000Y-65405000D02*
X198755000Y-66040000D01*
X199390000Y-64135000D02*
X199390000Y-65405000D01*
X198755000Y-63500000D02*
X199390000Y-64135000D01*
X197485000Y-63500000D02*
X198755000Y-63500000D01*
X196850000Y-64135000D02*
X197485000Y-63500000D01*
X194310000Y-63500000D02*
X196850000Y-63500000D01*
X194310000Y-66040000D02*
X194310000Y-63500000D01*
X196850000Y-66040000D02*
X196850000Y-65405000D01*
X196850000Y-64135000D02*
X196850000Y-63500000D01*
%TO.C,J3*%
X196850000Y-68580000D02*
X194310000Y-68580000D01*
X197485000Y-68580000D02*
X196850000Y-67945000D01*
X198755000Y-68580000D02*
X197485000Y-68580000D01*
X199390000Y-67945000D02*
X198755000Y-68580000D01*
X199390000Y-66675000D02*
X199390000Y-67945000D01*
X198755000Y-66040000D02*
X199390000Y-66675000D01*
X197485000Y-66040000D02*
X198755000Y-66040000D01*
X196850000Y-66675000D02*
X197485000Y-66040000D01*
X194310000Y-66040000D02*
X196850000Y-66040000D01*
X194310000Y-68580000D02*
X194310000Y-66040000D01*
X196850000Y-68580000D02*
X196850000Y-67945000D01*
X196850000Y-66675000D02*
X196850000Y-66040000D01*
%TO.C,J5*%
X148590000Y-128905000D02*
X147955000Y-129540000D01*
X149225000Y-129540000D02*
X148590000Y-128905000D01*
X150495000Y-129540000D02*
X149225000Y-129540000D01*
X151130000Y-128905000D02*
X150495000Y-129540000D01*
X151765000Y-129540000D02*
X151130000Y-128905000D01*
X153035000Y-129540000D02*
X151765000Y-129540000D01*
X153670000Y-128905000D02*
X153035000Y-129540000D01*
X154305000Y-129540000D02*
X153670000Y-128905000D01*
X155575000Y-129540000D02*
X154305000Y-129540000D01*
X156210000Y-128905000D02*
X155575000Y-129540000D01*
X156845000Y-129540000D02*
X156210000Y-128905000D01*
X158115000Y-129540000D02*
X156845000Y-129540000D01*
X158750000Y-128905000D02*
X158115000Y-129540000D01*
X159385000Y-129540000D02*
X158750000Y-128905000D01*
X160655000Y-129540000D02*
X159385000Y-129540000D01*
X161290000Y-128905000D02*
X160655000Y-129540000D01*
X161925000Y-129540000D02*
X161290000Y-128905000D01*
X163195000Y-129540000D02*
X161925000Y-129540000D01*
X163830000Y-128905000D02*
X163195000Y-129540000D01*
X164465000Y-129540000D02*
X163830000Y-128905000D01*
X165735000Y-129540000D02*
X164465000Y-129540000D01*
X166370000Y-128905000D02*
X165735000Y-129540000D01*
X167005000Y-129540000D02*
X166370000Y-128905000D01*
X168275000Y-129540000D02*
X167005000Y-129540000D01*
X168910000Y-128905000D02*
X168275000Y-129540000D01*
X169545000Y-129540000D02*
X168910000Y-128905000D01*
X170815000Y-129540000D02*
X169545000Y-129540000D01*
X171450000Y-128905000D02*
X170815000Y-129540000D01*
X172085000Y-129540000D02*
X171450000Y-128905000D01*
X173355000Y-129540000D02*
X172085000Y-129540000D01*
X173990000Y-128905000D02*
X173355000Y-129540000D01*
X174625000Y-129540000D02*
X173990000Y-128905000D01*
X175895000Y-129540000D02*
X174625000Y-129540000D01*
X176530000Y-128905000D02*
X175895000Y-129540000D01*
X177165000Y-129540000D02*
X176530000Y-128905000D01*
X178435000Y-129540000D02*
X177165000Y-129540000D01*
X179070000Y-128905000D02*
X178435000Y-129540000D01*
X179705000Y-129540000D02*
X179070000Y-128905000D01*
X180975000Y-129540000D02*
X179705000Y-129540000D01*
X181610000Y-128905000D02*
X180975000Y-129540000D01*
X182245000Y-129540000D02*
X181610000Y-128905000D01*
X183515000Y-129540000D02*
X182245000Y-129540000D01*
X184150000Y-128905000D02*
X183515000Y-129540000D01*
X184785000Y-129540000D02*
X184150000Y-128905000D01*
X186055000Y-129540000D02*
X184785000Y-129540000D01*
X186690000Y-128905000D02*
X186055000Y-129540000D01*
X187325000Y-129540000D02*
X186690000Y-128905000D01*
X188595000Y-129540000D02*
X187325000Y-129540000D01*
X189230000Y-128905000D02*
X188595000Y-129540000D01*
X189865000Y-129540000D02*
X189230000Y-128905000D01*
X191135000Y-129540000D02*
X189865000Y-129540000D01*
X191770000Y-128905000D02*
X191135000Y-129540000D01*
X191770000Y-127635000D02*
X191770000Y-128905000D01*
X191135000Y-127000000D02*
X191770000Y-127635000D01*
X191770000Y-126365000D02*
X191135000Y-127000000D01*
X191770000Y-125095000D02*
X191770000Y-126365000D01*
X191135000Y-124460000D02*
X191770000Y-125095000D01*
X189865000Y-124460000D02*
X191135000Y-124460000D01*
X189230000Y-125095000D02*
X189865000Y-124460000D01*
X188595000Y-124460000D02*
X189230000Y-125095000D01*
X187325000Y-124460000D02*
X188595000Y-124460000D01*
X186690000Y-125095000D02*
X187325000Y-124460000D01*
X186055000Y-124460000D02*
X186690000Y-125095000D01*
X184785000Y-124460000D02*
X186055000Y-124460000D01*
X184150000Y-125095000D02*
X184785000Y-124460000D01*
X183515000Y-124460000D02*
X184150000Y-125095000D01*
X182245000Y-124460000D02*
X183515000Y-124460000D01*
X181610000Y-125095000D02*
X182245000Y-124460000D01*
X180975000Y-124460000D02*
X181610000Y-125095000D01*
X179705000Y-124460000D02*
X180975000Y-124460000D01*
X179070000Y-125095000D02*
X179705000Y-124460000D01*
X178435000Y-124460000D02*
X179070000Y-125095000D01*
X177165000Y-124460000D02*
X178435000Y-124460000D01*
X176530000Y-125095000D02*
X177165000Y-124460000D01*
X175895000Y-124460000D02*
X176530000Y-125095000D01*
X174625000Y-124460000D02*
X175895000Y-124460000D01*
X173990000Y-125095000D02*
X174625000Y-124460000D01*
X173355000Y-124460000D02*
X173990000Y-125095000D01*
X172085000Y-124460000D02*
X173355000Y-124460000D01*
X171450000Y-125095000D02*
X172085000Y-124460000D01*
X170815000Y-124460000D02*
X171450000Y-125095000D01*
X169545000Y-124460000D02*
X170815000Y-124460000D01*
X168910000Y-125095000D02*
X169545000Y-124460000D01*
X168275000Y-124460000D02*
X168910000Y-125095000D01*
X167005000Y-124460000D02*
X168275000Y-124460000D01*
X166370000Y-125095000D02*
X167005000Y-124460000D01*
X165735000Y-124460000D02*
X166370000Y-125095000D01*
X164465000Y-124460000D02*
X165735000Y-124460000D01*
X163830000Y-125095000D02*
X164465000Y-124460000D01*
X163195000Y-124460000D02*
X163830000Y-125095000D01*
X161925000Y-124460000D02*
X163195000Y-124460000D01*
X161290000Y-125095000D02*
X161925000Y-124460000D01*
X160655000Y-124460000D02*
X161290000Y-125095000D01*
X159385000Y-124460000D02*
X160655000Y-124460000D01*
X158750000Y-125095000D02*
X159385000Y-124460000D01*
X158115000Y-124460000D02*
X158750000Y-125095000D01*
X156210000Y-125095000D02*
X156845000Y-124460000D01*
X156845000Y-124460000D02*
X158115000Y-124460000D01*
X155575000Y-124460000D02*
X156210000Y-125095000D01*
X153670000Y-125095000D02*
X154305000Y-124460000D01*
X153035000Y-124460000D02*
X153670000Y-125095000D01*
X154305000Y-124460000D02*
X155575000Y-124460000D01*
X151130000Y-125095000D02*
X151765000Y-124460000D01*
X151765000Y-124460000D02*
X153035000Y-124460000D01*
X150495000Y-124460000D02*
X151130000Y-125095000D01*
X147955000Y-124460000D02*
X148590000Y-125095000D01*
X148590000Y-125095000D02*
X149225000Y-124460000D01*
X149225000Y-124460000D02*
X150495000Y-124460000D01*
X143510000Y-129540000D02*
X143510000Y-128905000D01*
X140970000Y-127000000D02*
X141605000Y-127000000D01*
X147955000Y-129540000D02*
X146685000Y-129540000D01*
X146685000Y-129540000D02*
X146050000Y-128905000D01*
X146050000Y-128905000D02*
X145415000Y-129540000D01*
X145415000Y-129540000D02*
X144145000Y-129540000D01*
X144145000Y-129540000D02*
X143510000Y-128905000D01*
X141605000Y-127000000D02*
X140970000Y-126365000D01*
X140970000Y-126365000D02*
X140970000Y-125095000D01*
X140970000Y-125095000D02*
X141605000Y-124460000D01*
X141605000Y-124460000D02*
X142875000Y-124460000D01*
X142875000Y-124460000D02*
X143510000Y-125095000D01*
X143510000Y-125095000D02*
X144145000Y-124460000D01*
X144145000Y-124460000D02*
X145415000Y-124460000D01*
X145415000Y-124460000D02*
X146050000Y-125095000D01*
X146050000Y-125095000D02*
X146685000Y-124460000D01*
X146685000Y-124460000D02*
X147955000Y-124460000D01*
X143510000Y-129540000D02*
X140970000Y-129540000D01*
X140970000Y-129540000D02*
X140970000Y-127000000D01*
%TO.C,JP1*%
X174625000Y-81915000D02*
X173990000Y-81915000D01*
X176530000Y-81915000D02*
X175895000Y-81915000D01*
X176530000Y-84455000D02*
X173990000Y-84455000D01*
X173990000Y-84455000D02*
X173990000Y-81915000D01*
X174625000Y-81915000D02*
X173990000Y-81280000D01*
X173990000Y-81280000D02*
X173990000Y-80010000D01*
X173990000Y-80010000D02*
X174625000Y-79375000D01*
X174625000Y-79375000D02*
X173990000Y-78740000D01*
X173990000Y-78740000D02*
X173990000Y-77470000D01*
X173990000Y-77470000D02*
X174625000Y-76835000D01*
X174625000Y-76835000D02*
X175895000Y-76835000D01*
X175895000Y-76835000D02*
X176530000Y-77470000D01*
X176530000Y-77470000D02*
X176530000Y-78740000D01*
X176530000Y-78740000D02*
X175895000Y-79375000D01*
X175895000Y-79375000D02*
X176530000Y-80010000D01*
X176530000Y-80010000D02*
X176530000Y-81280000D01*
X176530000Y-81280000D02*
X175895000Y-81915000D01*
X176530000Y-81915000D02*
X176530000Y-84455000D01*
%TO.C,JP2*%
X169545000Y-81915000D02*
X168910000Y-81915000D01*
X171450000Y-81915000D02*
X170815000Y-81915000D01*
X171450000Y-84455000D02*
X168910000Y-84455000D01*
X168910000Y-84455000D02*
X168910000Y-81915000D01*
X169545000Y-81915000D02*
X168910000Y-81280000D01*
X168910000Y-81280000D02*
X168910000Y-80010000D01*
X168910000Y-80010000D02*
X169545000Y-79375000D01*
X169545000Y-79375000D02*
X168910000Y-78740000D01*
X168910000Y-78740000D02*
X168910000Y-77470000D01*
X168910000Y-77470000D02*
X169545000Y-76835000D01*
X169545000Y-76835000D02*
X170815000Y-76835000D01*
X170815000Y-76835000D02*
X171450000Y-77470000D01*
X171450000Y-77470000D02*
X171450000Y-78740000D01*
X171450000Y-78740000D02*
X170815000Y-79375000D01*
X170815000Y-79375000D02*
X171450000Y-80010000D01*
X171450000Y-80010000D02*
X171450000Y-81280000D01*
X171450000Y-81280000D02*
X170815000Y-81915000D01*
X171450000Y-81915000D02*
X171450000Y-84455000D01*
%TO.C,JP3*%
X184785000Y-81915000D02*
X184150000Y-81915000D01*
X186690000Y-81915000D02*
X186055000Y-81915000D01*
X186690000Y-84455000D02*
X184150000Y-84455000D01*
X184150000Y-84455000D02*
X184150000Y-81915000D01*
X184785000Y-81915000D02*
X184150000Y-81280000D01*
X184150000Y-81280000D02*
X184150000Y-80010000D01*
X184150000Y-80010000D02*
X184785000Y-79375000D01*
X184785000Y-79375000D02*
X184150000Y-78740000D01*
X184150000Y-78740000D02*
X184150000Y-77470000D01*
X184150000Y-77470000D02*
X184785000Y-76835000D01*
X184785000Y-76835000D02*
X186055000Y-76835000D01*
X186055000Y-76835000D02*
X186690000Y-77470000D01*
X186690000Y-77470000D02*
X186690000Y-78740000D01*
X186690000Y-78740000D02*
X186055000Y-79375000D01*
X186055000Y-79375000D02*
X186690000Y-80010000D01*
X186690000Y-80010000D02*
X186690000Y-81280000D01*
X186690000Y-81280000D02*
X186055000Y-81915000D01*
X186690000Y-81915000D02*
X186690000Y-84455000D01*
%TO.C,JP4*%
X179705000Y-81915000D02*
X179070000Y-81915000D01*
X181610000Y-81915000D02*
X180975000Y-81915000D01*
X181610000Y-84455000D02*
X179070000Y-84455000D01*
X179070000Y-84455000D02*
X179070000Y-81915000D01*
X179705000Y-81915000D02*
X179070000Y-81280000D01*
X179070000Y-81280000D02*
X179070000Y-80010000D01*
X179070000Y-80010000D02*
X179705000Y-79375000D01*
X179705000Y-79375000D02*
X179070000Y-78740000D01*
X179070000Y-78740000D02*
X179070000Y-77470000D01*
X179070000Y-77470000D02*
X179705000Y-76835000D01*
X179705000Y-76835000D02*
X180975000Y-76835000D01*
X180975000Y-76835000D02*
X181610000Y-77470000D01*
X181610000Y-77470000D02*
X181610000Y-78740000D01*
X181610000Y-78740000D02*
X180975000Y-79375000D01*
X180975000Y-79375000D02*
X181610000Y-80010000D01*
X181610000Y-80010000D02*
X181610000Y-81280000D01*
X181610000Y-81280000D02*
X180975000Y-81915000D01*
X181610000Y-81915000D02*
X181610000Y-84455000D01*
%TO.C,R1*%
X166116000Y-63500000D02*
X166116000Y-68580000D01*
X164338000Y-63246000D02*
X165862000Y-63246000D01*
X164084000Y-68580000D02*
X164084000Y-63500000D01*
X165862000Y-68834000D02*
X164338000Y-68834000D01*
X165100000Y-63246000D02*
X165100000Y-62230000D01*
X165100000Y-69850000D02*
X165100000Y-68834000D01*
X164084000Y-68580000D02*
G75*
G03*
X164338000Y-68834000I254000J0D01*
G01*
X165862000Y-68834000D02*
G75*
G03*
X166116000Y-68580000I0J254000D01*
G01*
X164338000Y-63246000D02*
G75*
G03*
X164084000Y-63500000I0J-254000D01*
G01*
X166116000Y-63500000D02*
G75*
G03*
X165862000Y-63246000I-254000J0D01*
G01*
%TO.C,R2*%
X188976000Y-91440000D02*
X188976000Y-96520000D01*
X187198000Y-91186000D02*
X188722000Y-91186000D01*
X186944000Y-96520000D02*
X186944000Y-91440000D01*
X188722000Y-96774000D02*
X187198000Y-96774000D01*
X187960000Y-91186000D02*
X187960000Y-90170000D01*
X187960000Y-97790000D02*
X187960000Y-96774000D01*
X186944000Y-96520000D02*
G75*
G03*
X187198000Y-96774000I254000J0D01*
G01*
X188722000Y-96774000D02*
G75*
G03*
X188976000Y-96520000I0J254000D01*
G01*
X187198000Y-91186000D02*
G75*
G03*
X186944000Y-91440000I0J-254000D01*
G01*
X188976000Y-91440000D02*
G75*
G03*
X188722000Y-91186000I-254000J0D01*
G01*
%TO.C,R3*%
X178816000Y-63500000D02*
X178816000Y-68580000D01*
X177038000Y-63246000D02*
X178562000Y-63246000D01*
X176784000Y-68580000D02*
X176784000Y-63500000D01*
X178562000Y-68834000D02*
X177038000Y-68834000D01*
X177800000Y-63246000D02*
X177800000Y-62230000D01*
X177800000Y-69850000D02*
X177800000Y-68834000D01*
X176784000Y-68580000D02*
G75*
G03*
X177038000Y-68834000I254000J0D01*
G01*
X178562000Y-68834000D02*
G75*
G03*
X178816000Y-68580000I0J254000D01*
G01*
X177038000Y-63246000D02*
G75*
G03*
X176784000Y-63500000I0J-254000D01*
G01*
X178816000Y-63500000D02*
G75*
G03*
X178562000Y-63246000I-254000J0D01*
G01*
%TO.C,R5*%
X153416000Y-63500000D02*
X153416000Y-68580000D01*
X151638000Y-63246000D02*
X153162000Y-63246000D01*
X151384000Y-68580000D02*
X151384000Y-63500000D01*
X153162000Y-68834000D02*
X151638000Y-68834000D01*
X152400000Y-63246000D02*
X152400000Y-62230000D01*
X152400000Y-69850000D02*
X152400000Y-68834000D01*
X151384000Y-68580000D02*
G75*
G03*
X151638000Y-68834000I254000J0D01*
G01*
X153162000Y-68834000D02*
G75*
G03*
X153416000Y-68580000I0J254000D01*
G01*
X151638000Y-63246000D02*
G75*
G03*
X151384000Y-63500000I0J-254000D01*
G01*
X153416000Y-63500000D02*
G75*
G03*
X153162000Y-63246000I-254000J0D01*
G01*
%TO.C,C1*%
X125476000Y-121158000D02*
X125476000Y-120142000D01*
X118872000Y-121666000D02*
X124968000Y-121666000D01*
X118872000Y-119634000D02*
X124968000Y-119634000D01*
X118364000Y-121158000D02*
X118364000Y-120142000D01*
X118872000Y-119634000D02*
G75*
G03*
X118364000Y-120142000I0J-508000D01*
G01*
X118364000Y-121158000D02*
G75*
G03*
X118872000Y-121666000I508000J0D01*
G01*
X125476000Y-120142000D02*
G75*
G03*
X124968000Y-119634000I-508000J0D01*
G01*
X124968000Y-121666000D02*
G75*
G03*
X125476000Y-121158000I0J508000D01*
G01*
%TO.C,C2*%
X145796000Y-121158000D02*
X145796000Y-120142000D01*
X139192000Y-121666000D02*
X145288000Y-121666000D01*
X139192000Y-119634000D02*
X145288000Y-119634000D01*
X138684000Y-121158000D02*
X138684000Y-120142000D01*
X139192000Y-119634000D02*
G75*
G03*
X138684000Y-120142000I0J-508000D01*
G01*
X138684000Y-121158000D02*
G75*
G03*
X139192000Y-121666000I508000J0D01*
G01*
X145796000Y-120142000D02*
G75*
G03*
X145288000Y-119634000I-508000J0D01*
G01*
X145288000Y-121666000D02*
G75*
G03*
X145796000Y-121158000I0J508000D01*
G01*
%TO.C,C3*%
X176276000Y-121158000D02*
X176276000Y-120142000D01*
X169672000Y-121666000D02*
X175768000Y-121666000D01*
X169672000Y-119634000D02*
X175768000Y-119634000D01*
X169164000Y-121158000D02*
X169164000Y-120142000D01*
X169672000Y-119634000D02*
G75*
G03*
X169164000Y-120142000I0J-508000D01*
G01*
X169164000Y-121158000D02*
G75*
G03*
X169672000Y-121666000I508000J0D01*
G01*
X176276000Y-120142000D02*
G75*
G03*
X175768000Y-119634000I-508000J0D01*
G01*
X175768000Y-121666000D02*
G75*
G03*
X176276000Y-121158000I0J508000D01*
G01*
%TO.C,C4*%
X155956000Y-121158000D02*
X155956000Y-120142000D01*
X149352000Y-121666000D02*
X155448000Y-121666000D01*
X149352000Y-119634000D02*
X155448000Y-119634000D01*
X148844000Y-121158000D02*
X148844000Y-120142000D01*
X149352000Y-119634000D02*
G75*
G03*
X148844000Y-120142000I0J-508000D01*
G01*
X148844000Y-121158000D02*
G75*
G03*
X149352000Y-121666000I508000J0D01*
G01*
X155956000Y-120142000D02*
G75*
G03*
X155448000Y-119634000I-508000J0D01*
G01*
X155448000Y-121666000D02*
G75*
G03*
X155956000Y-121158000I0J508000D01*
G01*
%TO.C,C6*%
X173736000Y-75438000D02*
X173736000Y-74422000D01*
X167132000Y-75946000D02*
X173228000Y-75946000D01*
X167132000Y-73914000D02*
X173228000Y-73914000D01*
X166624000Y-75438000D02*
X166624000Y-74422000D01*
X167132000Y-73914000D02*
G75*
G03*
X166624000Y-74422000I0J-508000D01*
G01*
X166624000Y-75438000D02*
G75*
G03*
X167132000Y-75946000I508000J0D01*
G01*
X173736000Y-74422000D02*
G75*
G03*
X173228000Y-73914000I-508000J0D01*
G01*
X173228000Y-75946000D02*
G75*
G03*
X173736000Y-75438000I0J508000D01*
G01*
%TO.C,C7*%
X186436000Y-75438000D02*
X186436000Y-74422000D01*
X179832000Y-75946000D02*
X185928000Y-75946000D01*
X179832000Y-73914000D02*
X185928000Y-73914000D01*
X179324000Y-75438000D02*
X179324000Y-74422000D01*
X179832000Y-73914000D02*
G75*
G03*
X179324000Y-74422000I0J-508000D01*
G01*
X179324000Y-75438000D02*
G75*
G03*
X179832000Y-75946000I508000J0D01*
G01*
X186436000Y-74422000D02*
G75*
G03*
X185928000Y-73914000I-508000J0D01*
G01*
X185928000Y-75946000D02*
G75*
G03*
X186436000Y-75438000I0J508000D01*
G01*
%TO.C,C8*%
X196596000Y-93218000D02*
X196596000Y-92202000D01*
X189992000Y-93726000D02*
X196088000Y-93726000D01*
X189992000Y-91694000D02*
X196088000Y-91694000D01*
X189484000Y-93218000D02*
X189484000Y-92202000D01*
X189992000Y-91694000D02*
G75*
G03*
X189484000Y-92202000I0J-508000D01*
G01*
X189484000Y-93218000D02*
G75*
G03*
X189992000Y-93726000I508000J0D01*
G01*
X196596000Y-92202000D02*
G75*
G03*
X196088000Y-91694000I-508000J0D01*
G01*
X196088000Y-93726000D02*
G75*
G03*
X196596000Y-93218000I0J508000D01*
G01*
%TO.C,C9*%
X161036000Y-75438000D02*
X161036000Y-74422000D01*
X154432000Y-75946000D02*
X160528000Y-75946000D01*
X154432000Y-73914000D02*
X160528000Y-73914000D01*
X153924000Y-75438000D02*
X153924000Y-74422000D01*
X154432000Y-73914000D02*
G75*
G03*
X153924000Y-74422000I0J-508000D01*
G01*
X153924000Y-75438000D02*
G75*
G03*
X154432000Y-75946000I508000J0D01*
G01*
X161036000Y-74422000D02*
G75*
G03*
X160528000Y-73914000I-508000J0D01*
G01*
X160528000Y-75946000D02*
G75*
G03*
X161036000Y-75438000I0J508000D01*
G01*
%TO.C,C10*%
X125476000Y-74803000D02*
X125476000Y-73787000D01*
X118872000Y-75311000D02*
X124968000Y-75311000D01*
X118872000Y-73279000D02*
X124968000Y-73279000D01*
X118364000Y-74803000D02*
X118364000Y-73787000D01*
X118872000Y-73279000D02*
G75*
G03*
X118364000Y-73787000I0J-508000D01*
G01*
X118364000Y-74803000D02*
G75*
G03*
X118872000Y-75311000I508000J0D01*
G01*
X125476000Y-73787000D02*
G75*
G03*
X124968000Y-73279000I-508000J0D01*
G01*
X124968000Y-75311000D02*
G75*
G03*
X125476000Y-74803000I0J508000D01*
G01*
%TO.C,C11*%
X115316000Y-83058000D02*
X115316000Y-82042000D01*
X108712000Y-83566000D02*
X114808000Y-83566000D01*
X108712000Y-81534000D02*
X114808000Y-81534000D01*
X108204000Y-83058000D02*
X108204000Y-82042000D01*
X108712000Y-81534000D02*
G75*
G03*
X108204000Y-82042000I0J-508000D01*
G01*
X108204000Y-83058000D02*
G75*
G03*
X108712000Y-83566000I508000J0D01*
G01*
X115316000Y-82042000D02*
G75*
G03*
X114808000Y-81534000I-508000J0D01*
G01*
X114808000Y-83566000D02*
G75*
G03*
X115316000Y-83058000I0J508000D01*
G01*
%TO.C,C12*%
X125070000Y-79375000D02*
G75*
G03*
X125070000Y-79375000I-3150000J0D01*
G01*
%TO.C,C5*%
X196596000Y-121158000D02*
X196596000Y-120142000D01*
X189992000Y-121666000D02*
X196088000Y-121666000D01*
X189992000Y-119634000D02*
X196088000Y-119634000D01*
X189484000Y-121158000D02*
X189484000Y-120142000D01*
X189992000Y-119634000D02*
G75*
G03*
X189484000Y-120142000I0J-508000D01*
G01*
X189484000Y-121158000D02*
G75*
G03*
X189992000Y-121666000I508000J0D01*
G01*
X196596000Y-120142000D02*
G75*
G03*
X196088000Y-119634000I-508000J0D01*
G01*
X196088000Y-121666000D02*
G75*
G03*
X196596000Y-121158000I0J508000D01*
G01*
%TO.C,F1*%
X125476000Y-64643000D02*
X125476000Y-63627000D01*
X118872000Y-65151000D02*
X124968000Y-65151000D01*
X118872000Y-63119000D02*
X124968000Y-63119000D01*
X118364000Y-64643000D02*
X118364000Y-63627000D01*
X118872000Y-63119000D02*
G75*
G03*
X118364000Y-63627000I0J-508000D01*
G01*
X118364000Y-64643000D02*
G75*
G03*
X118872000Y-65151000I508000J0D01*
G01*
X125476000Y-63627000D02*
G75*
G03*
X124968000Y-63119000I-508000J0D01*
G01*
X124968000Y-65151000D02*
G75*
G03*
X125476000Y-64643000I0J508000D01*
G01*
%TO.C,R4*%
X128016000Y-109220000D02*
X128016000Y-114300000D01*
X126238000Y-108966000D02*
X127762000Y-108966000D01*
X125984000Y-114300000D02*
X125984000Y-109220000D01*
X127762000Y-114554000D02*
X126238000Y-114554000D01*
X127000000Y-108966000D02*
X127000000Y-107950000D01*
X127000000Y-115570000D02*
X127000000Y-114554000D01*
X125984000Y-114300000D02*
G75*
G03*
X126238000Y-114554000I254000J0D01*
G01*
X127762000Y-114554000D02*
G75*
G03*
X128016000Y-114300000I0J254000D01*
G01*
X126238000Y-108966000D02*
G75*
G03*
X125984000Y-109220000I0J-254000D01*
G01*
X128016000Y-109220000D02*
G75*
G03*
X127762000Y-108966000I-254000J0D01*
G01*
%TO.C,U10*%
X110410000Y-80685000D02*
X110410000Y-61185000D01*
X110410000Y-61185000D02*
X116410000Y-61185000D01*
X116410000Y-61185000D02*
X116410000Y-80685000D01*
X116410000Y-80685000D02*
X110410000Y-80685000D01*
%TO.C,U1*%
X123698000Y-117475000D02*
X109982000Y-117475000D01*
X123698000Y-85725000D02*
X123698000Y-117475000D01*
X109982000Y-85725000D02*
X123698000Y-85725000D01*
X109982000Y-117475000D02*
X109982000Y-85725000D01*
X116840000Y-116459000D02*
G75*
G03*
X115824000Y-117475000I0J-1016000D01*
G01*
X117856000Y-117475000D02*
G75*
G03*
X116840000Y-116459000I-1016000J0D01*
G01*
%TO.C,U2*%
X144018000Y-117602000D02*
X130302000Y-117602000D01*
X144018000Y-65278000D02*
X144018000Y-117602000D01*
X130302000Y-65278000D02*
X144018000Y-65278000D01*
X130302000Y-117602000D02*
X130302000Y-65278000D01*
X137160000Y-116586000D02*
G75*
G03*
X136144000Y-117602000I0J-1016000D01*
G01*
X138176000Y-117602000D02*
G75*
G03*
X137160000Y-116586000I-1016000J0D01*
G01*
%TO.C,U5*%
X191262000Y-96520000D02*
X197358000Y-96520000D01*
X191262000Y-116840000D02*
X191262000Y-96520000D01*
X197358000Y-116840000D02*
X191262000Y-116840000D01*
X197358000Y-96520000D02*
X197358000Y-116840000D01*
X194310000Y-115824000D02*
G75*
G03*
X193294000Y-116840000I0J-1016000D01*
G01*
X195326000Y-116840000D02*
G75*
G03*
X194310000Y-115824000I-1016000J0D01*
G01*
%TO.C,U6*%
X174498000Y-52070000D02*
X174498000Y-72390000D01*
X174498000Y-72390000D02*
X168402000Y-72390000D01*
X168402000Y-72390000D02*
X168402000Y-52070000D01*
X168402000Y-52070000D02*
X174498000Y-52070000D01*
X171450000Y-71374000D02*
G75*
G03*
X170434000Y-72390000I0J-1016000D01*
G01*
X172466000Y-72390000D02*
G75*
G03*
X171450000Y-71374000I-1016000J0D01*
G01*
%TO.C,U7*%
X187198000Y-52070000D02*
X187198000Y-72390000D01*
X187198000Y-72390000D02*
X181102000Y-72390000D01*
X181102000Y-72390000D02*
X181102000Y-52070000D01*
X181102000Y-52070000D02*
X187198000Y-52070000D01*
X184150000Y-71374000D02*
G75*
G03*
X183134000Y-72390000I0J-1016000D01*
G01*
X185166000Y-72390000D02*
G75*
G03*
X184150000Y-71374000I-1016000J0D01*
G01*
%TO.C,U8*%
X197358000Y-69850000D02*
X197358000Y-90170000D01*
X197358000Y-90170000D02*
X191262000Y-90170000D01*
X191262000Y-90170000D02*
X191262000Y-69850000D01*
X191262000Y-69850000D02*
X197358000Y-69850000D01*
X194310000Y-89154000D02*
G75*
G03*
X193294000Y-90170000I0J-1016000D01*
G01*
X195326000Y-90170000D02*
G75*
G03*
X194310000Y-89154000I-1016000J0D01*
G01*
%TO.C,U9*%
X161798000Y-52070000D02*
X161798000Y-72390000D01*
X161798000Y-72390000D02*
X155702000Y-72390000D01*
X155702000Y-72390000D02*
X155702000Y-52070000D01*
X155702000Y-52070000D02*
X161798000Y-52070000D01*
X158750000Y-71374000D02*
G75*
G03*
X157734000Y-72390000I0J-1016000D01*
G01*
X159766000Y-72390000D02*
G75*
G03*
X158750000Y-71374000I-1016000J0D01*
G01*
%TO.C,U3*%
X184658000Y-117475000D02*
X170942000Y-117475000D01*
X184658000Y-85725000D02*
X184658000Y-117475000D01*
X170942000Y-85725000D02*
X184658000Y-85725000D01*
X170942000Y-117475000D02*
X170942000Y-85725000D01*
X177800000Y-116459000D02*
G75*
G03*
X176784000Y-117475000I0J-1016000D01*
G01*
X178816000Y-117475000D02*
G75*
G03*
X177800000Y-116459000I-1016000J0D01*
G01*
%TO.C,U4*%
X150622000Y-117348000D02*
X150622000Y-80772000D01*
X150622000Y-80772000D02*
X164338000Y-80772000D01*
X164338000Y-80772000D02*
X164338000Y-117348000D01*
X164338000Y-117348000D02*
X150622000Y-117348000D01*
X157480000Y-116332000D02*
G75*
G03*
X156464000Y-117348000I0J-1016000D01*
G01*
X158496000Y-117348000D02*
G75*
G03*
X157480000Y-116332000I-1016000J0D01*
G01*
%TO.C,J4*%
D10*
X141906666Y-59142380D02*
X141906666Y-59856666D01*
X141859047Y-59999523D01*
X141763809Y-60094761D01*
X141620952Y-60142380D01*
X141525714Y-60142380D01*
X142811428Y-59475714D02*
X142811428Y-60142380D01*
X142573333Y-59094761D02*
X142335238Y-59809047D01*
X142954285Y-59809047D01*
X144897872Y-60142380D02*
X145022872Y-59142380D01*
X145365729Y-59142380D01*
X145445491Y-59190000D01*
X145482395Y-59237619D01*
X145513348Y-59332857D01*
X145495491Y-59475714D01*
X145440729Y-59570952D01*
X145391919Y-59618571D01*
X145300252Y-59666190D01*
X144957395Y-59666190D01*
X145790729Y-59856666D02*
X146219300Y-59856666D01*
X145669300Y-60142380D02*
X146094300Y-59142380D01*
X146269300Y-60142380D01*
X147083586Y-60142380D02*
X146843110Y-59666190D01*
X146569300Y-60142380D02*
X146694300Y-59142380D01*
X147037157Y-59142380D01*
X147116919Y-59190000D01*
X147153824Y-59237619D01*
X147184776Y-59332857D01*
X147166919Y-59475714D01*
X147112157Y-59570952D01*
X147063348Y-59618571D01*
X146971681Y-59666190D01*
X146628824Y-59666190D01*
X147462157Y-59856666D02*
X147890729Y-59856666D01*
X147340729Y-60142380D02*
X147765729Y-59142380D01*
X147940729Y-60142380D01*
X148669300Y-60142380D02*
X148240729Y-60142380D01*
X148365729Y-59142380D01*
X149397872Y-60142380D02*
X148969300Y-60142380D01*
X149094300Y-59142380D01*
X149763348Y-59618571D02*
X150063348Y-59618571D01*
X150126443Y-60142380D02*
X149697872Y-60142380D01*
X149822872Y-59142380D01*
X150251443Y-59142380D01*
X150940729Y-60142380D02*
X150512157Y-60142380D01*
X150637157Y-59142380D01*
%TO.C,C13*%
X126404642Y-69857857D02*
X126452261Y-69905476D01*
X126499880Y-70048333D01*
X126499880Y-70143571D01*
X126452261Y-70286428D01*
X126357023Y-70381666D01*
X126261785Y-70429285D01*
X126071309Y-70476904D01*
X125928452Y-70476904D01*
X125737976Y-70429285D01*
X125642738Y-70381666D01*
X125547500Y-70286428D01*
X125499880Y-70143571D01*
X125499880Y-70048333D01*
X125547500Y-69905476D01*
X125595119Y-69857857D01*
X126499880Y-68905476D02*
X126499880Y-69476904D01*
X126499880Y-69191190D02*
X125499880Y-69191190D01*
X125642738Y-69286428D01*
X125737976Y-69381666D01*
X125785595Y-69476904D01*
X125499880Y-68572142D02*
X125499880Y-67953095D01*
X125880833Y-68286428D01*
X125880833Y-68143571D01*
X125928452Y-68048333D01*
X125976071Y-68000714D01*
X126071309Y-67953095D01*
X126309404Y-67953095D01*
X126404642Y-68000714D01*
X126452261Y-68048333D01*
X126499880Y-68143571D01*
X126499880Y-68429285D01*
X126452261Y-68524523D01*
X126404642Y-68572142D01*
X127103214Y-70281651D02*
X127769880Y-70364985D01*
X126722261Y-70448318D02*
X127436547Y-70751889D01*
X127436547Y-70194747D01*
X126769880Y-69854270D02*
X126769880Y-69254270D01*
X127769880Y-69764985D01*
X127103214Y-68567366D02*
X127769880Y-68650699D01*
X127103214Y-68953080D02*
X127627023Y-69018556D01*
X127722261Y-68987604D01*
X127769880Y-68907842D01*
X127769880Y-68779270D01*
X127722261Y-68687604D01*
X127674642Y-68638794D01*
X127246071Y-67856651D02*
X127246071Y-68156651D01*
X127769880Y-68222127D02*
X126769880Y-68097127D01*
X126769880Y-67668556D01*
X118681547Y-66428928D02*
X119443452Y-66428928D01*
X119062500Y-66809880D02*
X119062500Y-66047976D01*
%TO.C,J1*%
X200326666Y-61682380D02*
X200326666Y-62396666D01*
X200279047Y-62539523D01*
X200183809Y-62634761D01*
X200040952Y-62682380D01*
X199945714Y-62682380D01*
X201326666Y-62682380D02*
X200755238Y-62682380D01*
X201040952Y-62682380D02*
X201040952Y-61682380D01*
X200945714Y-61825238D01*
X200850476Y-61920476D01*
X200755238Y-61968095D01*
X190320014Y-62682380D02*
X190079538Y-62206190D01*
X189805729Y-62682380D02*
X189930729Y-61682380D01*
X190273586Y-61682380D01*
X190353348Y-61730000D01*
X190390252Y-61777619D01*
X190421205Y-61872857D01*
X190403348Y-62015714D01*
X190348586Y-62110952D01*
X190299776Y-62158571D01*
X190208110Y-62206190D01*
X189865252Y-62206190D01*
X190771205Y-62158571D02*
X191071205Y-62158571D01*
X191134300Y-62682380D02*
X190705729Y-62682380D01*
X190830729Y-61682380D01*
X191259300Y-61682380D01*
X191512872Y-62396666D02*
X191941443Y-62396666D01*
X191391443Y-62682380D02*
X191816443Y-61682380D01*
X191991443Y-62682380D01*
X192291443Y-62682380D02*
X192416443Y-61682380D01*
X192630729Y-61682380D01*
X192753348Y-61730000D01*
X192827157Y-61825238D01*
X192858110Y-61920476D01*
X192877157Y-62110952D01*
X192859300Y-62253809D01*
X192792633Y-62444285D01*
X192737872Y-62539523D01*
X192640252Y-62634761D01*
X192505729Y-62682380D01*
X192291443Y-62682380D01*
X193422395Y-62206190D02*
X193362872Y-62682380D01*
X193187872Y-61682380D02*
X193422395Y-62206190D01*
X193787872Y-61682380D01*
%TO.C,J2*%
X200326666Y-64222380D02*
X200326666Y-64936666D01*
X200279047Y-65079523D01*
X200183809Y-65174761D01*
X200040952Y-65222380D01*
X199945714Y-65222380D01*
X200755238Y-64317619D02*
X200802857Y-64270000D01*
X200898095Y-64222380D01*
X201136190Y-64222380D01*
X201231428Y-64270000D01*
X201279047Y-64317619D01*
X201326666Y-64412857D01*
X201326666Y-64508095D01*
X201279047Y-64650952D01*
X200707619Y-65222380D01*
X201326666Y-65222380D01*
X191101443Y-64222380D02*
X191272872Y-64222380D01*
X191352633Y-64270000D01*
X191426443Y-64365238D01*
X191445491Y-64555714D01*
X191403824Y-64889047D01*
X191337157Y-65079523D01*
X191239538Y-65174761D01*
X191147872Y-65222380D01*
X190976443Y-65222380D01*
X190896681Y-65174761D01*
X190822872Y-65079523D01*
X190803824Y-64889047D01*
X190845491Y-64555714D01*
X190912157Y-64365238D01*
X191009776Y-64270000D01*
X191101443Y-64222380D01*
X191872872Y-64222380D02*
X191771681Y-65031904D01*
X191802633Y-65127142D01*
X191839538Y-65174761D01*
X191919300Y-65222380D01*
X192090729Y-65222380D01*
X192182395Y-65174761D01*
X192231205Y-65127142D01*
X192285967Y-65031904D01*
X192387157Y-64222380D01*
X192687157Y-64222380D02*
X193201443Y-64222380D01*
X192819300Y-65222380D02*
X192944300Y-64222380D01*
X193847872Y-65222380D02*
X193333586Y-65222380D01*
X193590729Y-65222380D02*
X193715729Y-64222380D01*
X193612157Y-64365238D01*
X193514538Y-64460476D01*
X193422872Y-64508095D01*
%TO.C,J3*%
X200326666Y-66762380D02*
X200326666Y-67476666D01*
X200279047Y-67619523D01*
X200183809Y-67714761D01*
X200040952Y-67762380D01*
X199945714Y-67762380D01*
X200707619Y-66762380D02*
X201326666Y-66762380D01*
X200993333Y-67143333D01*
X201136190Y-67143333D01*
X201231428Y-67190952D01*
X201279047Y-67238571D01*
X201326666Y-67333809D01*
X201326666Y-67571904D01*
X201279047Y-67667142D01*
X201231428Y-67714761D01*
X201136190Y-67762380D01*
X200850476Y-67762380D01*
X200755238Y-67714761D01*
X200707619Y-67667142D01*
X190783943Y-66762380D02*
X190955372Y-66762380D01*
X191035133Y-66810000D01*
X191108943Y-66905238D01*
X191127991Y-67095714D01*
X191086324Y-67429047D01*
X191019657Y-67619523D01*
X190922038Y-67714761D01*
X190830372Y-67762380D01*
X190658943Y-67762380D01*
X190579181Y-67714761D01*
X190505372Y-67619523D01*
X190486324Y-67429047D01*
X190527991Y-67095714D01*
X190594657Y-66905238D01*
X190692276Y-66810000D01*
X190783943Y-66762380D01*
X191555372Y-66762380D02*
X191454181Y-67571904D01*
X191485133Y-67667142D01*
X191522038Y-67714761D01*
X191601800Y-67762380D01*
X191773229Y-67762380D01*
X191864895Y-67714761D01*
X191913705Y-67667142D01*
X191968467Y-67571904D01*
X192069657Y-66762380D01*
X192369657Y-66762380D02*
X192883943Y-66762380D01*
X192501800Y-67762380D02*
X192626800Y-66762380D01*
X193129181Y-66857619D02*
X193177991Y-66810000D01*
X193269657Y-66762380D01*
X193483943Y-66762380D01*
X193563705Y-66810000D01*
X193600610Y-66857619D01*
X193631562Y-66952857D01*
X193619657Y-67048095D01*
X193558943Y-67190952D01*
X192973229Y-67762380D01*
X193530372Y-67762380D01*
%TO.C,J5*%
X157781666Y-122959880D02*
X157781666Y-123674166D01*
X157734047Y-123817023D01*
X157638809Y-123912261D01*
X157495952Y-123959880D01*
X157400714Y-123959880D01*
X158734047Y-122959880D02*
X158257857Y-122959880D01*
X158210238Y-123436071D01*
X158257857Y-123388452D01*
X158353095Y-123340833D01*
X158591190Y-123340833D01*
X158686428Y-123388452D01*
X158734047Y-123436071D01*
X158781666Y-123531309D01*
X158781666Y-123769404D01*
X158734047Y-123864642D01*
X158686428Y-123912261D01*
X158591190Y-123959880D01*
X158353095Y-123959880D01*
X158257857Y-123912261D01*
X158210238Y-123864642D01*
X161001919Y-123436071D02*
X161301919Y-123436071D01*
X161365014Y-123959880D02*
X160936443Y-123959880D01*
X161061443Y-122959880D01*
X161490014Y-122959880D01*
X161790014Y-122959880D02*
X162265014Y-123959880D01*
X162390014Y-122959880D02*
X161665014Y-123959880D01*
X162604300Y-122959880D02*
X163118586Y-122959880D01*
X162736443Y-123959880D02*
X162861443Y-122959880D01*
X163359062Y-123436071D02*
X163659062Y-123436071D01*
X163722157Y-123959880D02*
X163293586Y-123959880D01*
X163418586Y-122959880D01*
X163847157Y-122959880D01*
X164107872Y-123959880D02*
X164232872Y-122959880D01*
X164622157Y-123959880D01*
X164747157Y-122959880D01*
X165013824Y-123912261D02*
X165136443Y-123959880D01*
X165350729Y-123959880D01*
X165442395Y-123912261D01*
X165491205Y-123864642D01*
X165545967Y-123769404D01*
X165557872Y-123674166D01*
X165526919Y-123578928D01*
X165490014Y-123531309D01*
X165410252Y-123483690D01*
X165244776Y-123436071D01*
X165165014Y-123388452D01*
X165128110Y-123340833D01*
X165097157Y-123245595D01*
X165109062Y-123150357D01*
X165163824Y-123055119D01*
X165212633Y-123007500D01*
X165304300Y-122959880D01*
X165518586Y-122959880D01*
X165641205Y-123007500D01*
X165907872Y-123959880D02*
X166032872Y-122959880D01*
X166632872Y-122959880D02*
X166804300Y-122959880D01*
X166884062Y-123007500D01*
X166957872Y-123102738D01*
X166976919Y-123293214D01*
X166935252Y-123626547D01*
X166868586Y-123817023D01*
X166770967Y-123912261D01*
X166679300Y-123959880D01*
X166507872Y-123959880D01*
X166428110Y-123912261D01*
X166354300Y-123817023D01*
X166335252Y-123626547D01*
X166376919Y-123293214D01*
X166443586Y-123102738D01*
X166541205Y-123007500D01*
X166632872Y-122959880D01*
X167279300Y-123959880D02*
X167404300Y-122959880D01*
X167793586Y-123959880D01*
X167918586Y-122959880D01*
%TO.C,JP1*%
X176934880Y-84018333D02*
X177649166Y-84018333D01*
X177792023Y-84065952D01*
X177887261Y-84161190D01*
X177934880Y-84304047D01*
X177934880Y-84399285D01*
X177934880Y-83542142D02*
X176934880Y-83542142D01*
X176934880Y-83161190D01*
X176982500Y-83065952D01*
X177030119Y-83018333D01*
X177125357Y-82970714D01*
X177268214Y-82970714D01*
X177363452Y-83018333D01*
X177411071Y-83065952D01*
X177458690Y-83161190D01*
X177458690Y-83542142D01*
X177934880Y-82018333D02*
X177934880Y-82589761D01*
X177934880Y-82304047D02*
X176934880Y-82304047D01*
X177077738Y-82399285D01*
X177172976Y-82494523D01*
X177220595Y-82589761D01*
X177839642Y-79474866D02*
X177887261Y-79523675D01*
X177934880Y-79658199D01*
X177934880Y-79743913D01*
X177887261Y-79866532D01*
X177792023Y-79940342D01*
X177696785Y-79971294D01*
X177506309Y-79990342D01*
X177363452Y-79972485D01*
X177172976Y-79905818D01*
X177077738Y-79851056D01*
X176982500Y-79753437D01*
X176934880Y-79618913D01*
X176934880Y-79533199D01*
X176982500Y-79410580D01*
X177030119Y-79373675D01*
X177934880Y-78672485D02*
X177934880Y-79101056D01*
X176934880Y-78976056D01*
X177934880Y-78372485D02*
X176934880Y-78247485D01*
X177934880Y-77858199D02*
X177363452Y-78172485D01*
X176934880Y-77733199D02*
X177506309Y-78318913D01*
X177934880Y-77001056D02*
X177934880Y-77515342D01*
X177934880Y-77258199D02*
X176934880Y-77133199D01*
X177077738Y-77236770D01*
X177172976Y-77334389D01*
X177220595Y-77426056D01*
%TO.C,JP2*%
X171854880Y-84018333D02*
X172569166Y-84018333D01*
X172712023Y-84065952D01*
X172807261Y-84161190D01*
X172854880Y-84304047D01*
X172854880Y-84399285D01*
X172854880Y-83542142D02*
X171854880Y-83542142D01*
X171854880Y-83161190D01*
X171902500Y-83065952D01*
X171950119Y-83018333D01*
X172045357Y-82970714D01*
X172188214Y-82970714D01*
X172283452Y-83018333D01*
X172331071Y-83065952D01*
X172378690Y-83161190D01*
X172378690Y-83542142D01*
X171950119Y-82589761D02*
X171902500Y-82542142D01*
X171854880Y-82446904D01*
X171854880Y-82208809D01*
X171902500Y-82113571D01*
X171950119Y-82065952D01*
X172045357Y-82018333D01*
X172140595Y-82018333D01*
X172283452Y-82065952D01*
X172854880Y-82637380D01*
X172854880Y-82018333D01*
X171902500Y-80049508D02*
X171854880Y-80129270D01*
X171854880Y-80257842D01*
X171902500Y-80392366D01*
X171997738Y-80489985D01*
X172092976Y-80544747D01*
X172283452Y-80611413D01*
X172426309Y-80629270D01*
X172616785Y-80610223D01*
X172712023Y-80579270D01*
X172807261Y-80505461D01*
X172854880Y-80382842D01*
X172854880Y-80297127D01*
X172807261Y-80162604D01*
X172759642Y-80113794D01*
X172426309Y-80072127D01*
X172426309Y-80243556D01*
X172569166Y-79747127D02*
X172569166Y-79318556D01*
X172854880Y-79868556D02*
X171854880Y-79443556D01*
X172854880Y-79268556D01*
X171854880Y-78972127D02*
X171854880Y-78457842D01*
X172854880Y-78839985D02*
X171854880Y-78714985D01*
X172331071Y-78217366D02*
X172331071Y-77917366D01*
X172854880Y-77854270D02*
X172854880Y-78282842D01*
X171854880Y-78157842D01*
X171854880Y-77729270D01*
X171950119Y-77398318D02*
X171902500Y-77349508D01*
X171854880Y-77257842D01*
X171854880Y-77043556D01*
X171902500Y-76963794D01*
X171950119Y-76926889D01*
X172045357Y-76895937D01*
X172140595Y-76907842D01*
X172283452Y-76968556D01*
X172854880Y-77554270D01*
X172854880Y-76997127D01*
%TO.C,JP3*%
X187094880Y-84018333D02*
X187809166Y-84018333D01*
X187952023Y-84065952D01*
X188047261Y-84161190D01*
X188094880Y-84304047D01*
X188094880Y-84399285D01*
X188094880Y-83542142D02*
X187094880Y-83542142D01*
X187094880Y-83161190D01*
X187142500Y-83065952D01*
X187190119Y-83018333D01*
X187285357Y-82970714D01*
X187428214Y-82970714D01*
X187523452Y-83018333D01*
X187571071Y-83065952D01*
X187618690Y-83161190D01*
X187618690Y-83542142D01*
X187094880Y-82637380D02*
X187094880Y-82018333D01*
X187475833Y-82351666D01*
X187475833Y-82208809D01*
X187523452Y-82113571D01*
X187571071Y-82065952D01*
X187666309Y-82018333D01*
X187904404Y-82018333D01*
X187999642Y-82065952D01*
X188047261Y-82113571D01*
X188094880Y-82208809D01*
X188094880Y-82494523D01*
X188047261Y-82589761D01*
X187999642Y-82637380D01*
X187999642Y-79474866D02*
X188047261Y-79523675D01*
X188094880Y-79658199D01*
X188094880Y-79743913D01*
X188047261Y-79866532D01*
X187952023Y-79940342D01*
X187856785Y-79971294D01*
X187666309Y-79990342D01*
X187523452Y-79972485D01*
X187332976Y-79905818D01*
X187237738Y-79851056D01*
X187142500Y-79753437D01*
X187094880Y-79618913D01*
X187094880Y-79533199D01*
X187142500Y-79410580D01*
X187190119Y-79373675D01*
X188094880Y-78672485D02*
X188094880Y-79101056D01*
X187094880Y-78976056D01*
X188094880Y-78372485D02*
X187094880Y-78247485D01*
X188094880Y-77858199D02*
X187523452Y-78172485D01*
X187094880Y-77733199D02*
X187666309Y-78318913D01*
X187190119Y-77402247D02*
X187142500Y-77353437D01*
X187094880Y-77261770D01*
X187094880Y-77047485D01*
X187142500Y-76967723D01*
X187190119Y-76930818D01*
X187285357Y-76899866D01*
X187380595Y-76911770D01*
X187523452Y-76972485D01*
X188094880Y-77558199D01*
X188094880Y-77001056D01*
%TO.C,JP4*%
X182014880Y-84018333D02*
X182729166Y-84018333D01*
X182872023Y-84065952D01*
X182967261Y-84161190D01*
X183014880Y-84304047D01*
X183014880Y-84399285D01*
X183014880Y-83542142D02*
X182014880Y-83542142D01*
X182014880Y-83161190D01*
X182062500Y-83065952D01*
X182110119Y-83018333D01*
X182205357Y-82970714D01*
X182348214Y-82970714D01*
X182443452Y-83018333D01*
X182491071Y-83065952D01*
X182538690Y-83161190D01*
X182538690Y-83542142D01*
X182348214Y-82113571D02*
X183014880Y-82113571D01*
X181967261Y-82351666D02*
X182681547Y-82589761D01*
X182681547Y-81970714D01*
X182062500Y-80049508D02*
X182014880Y-80129270D01*
X182014880Y-80257842D01*
X182062500Y-80392366D01*
X182157738Y-80489985D01*
X182252976Y-80544747D01*
X182443452Y-80611413D01*
X182586309Y-80629270D01*
X182776785Y-80610223D01*
X182872023Y-80579270D01*
X182967261Y-80505461D01*
X183014880Y-80382842D01*
X183014880Y-80297127D01*
X182967261Y-80162604D01*
X182919642Y-80113794D01*
X182586309Y-80072127D01*
X182586309Y-80243556D01*
X182729166Y-79747127D02*
X182729166Y-79318556D01*
X183014880Y-79868556D02*
X182014880Y-79443556D01*
X183014880Y-79268556D01*
X182014880Y-78972127D02*
X182014880Y-78457842D01*
X183014880Y-78839985D02*
X182014880Y-78714985D01*
X182491071Y-78217366D02*
X182491071Y-77917366D01*
X183014880Y-77854270D02*
X183014880Y-78282842D01*
X182014880Y-78157842D01*
X182014880Y-77729270D01*
X182110119Y-77398318D02*
X182062500Y-77349508D01*
X182014880Y-77257842D01*
X182014880Y-77043556D01*
X182062500Y-76963794D01*
X182110119Y-76926889D01*
X182205357Y-76895937D01*
X182300595Y-76907842D01*
X182443452Y-76968556D01*
X183014880Y-77554270D01*
X183014880Y-76997127D01*
%TO.C,R1*%
X164917380Y-71921666D02*
X164441190Y-72255000D01*
X164917380Y-72493095D02*
X163917380Y-72493095D01*
X163917380Y-72112142D01*
X163965000Y-72016904D01*
X164012619Y-71969285D01*
X164107857Y-71921666D01*
X164250714Y-71921666D01*
X164345952Y-71969285D01*
X164393571Y-72016904D01*
X164441190Y-72112142D01*
X164441190Y-72493095D01*
X164917380Y-70969285D02*
X164917380Y-71540714D01*
X164917380Y-71255000D02*
X163917380Y-71255000D01*
X164060238Y-71350238D01*
X164155476Y-71445476D01*
X164203095Y-71540714D01*
X166187380Y-72047842D02*
X166187380Y-72562127D01*
X166187380Y-72304985D02*
X165187380Y-72179985D01*
X165330238Y-72283556D01*
X165425476Y-72381175D01*
X165473095Y-72472842D01*
X166187380Y-71662127D02*
X165187380Y-71537127D01*
X166187380Y-71147842D02*
X165615952Y-71462127D01*
X165187380Y-71022842D02*
X165758809Y-71608556D01*
%TO.C,R2*%
X187777380Y-99861666D02*
X187301190Y-100195000D01*
X187777380Y-100433095D02*
X186777380Y-100433095D01*
X186777380Y-100052142D01*
X186825000Y-99956904D01*
X186872619Y-99909285D01*
X186967857Y-99861666D01*
X187110714Y-99861666D01*
X187205952Y-99909285D01*
X187253571Y-99956904D01*
X187301190Y-100052142D01*
X187301190Y-100433095D01*
X186872619Y-99480714D02*
X186825000Y-99433095D01*
X186777380Y-99337857D01*
X186777380Y-99099761D01*
X186825000Y-99004523D01*
X186872619Y-98956904D01*
X186967857Y-98909285D01*
X187063095Y-98909285D01*
X187205952Y-98956904D01*
X187777380Y-99528333D01*
X187777380Y-98909285D01*
X189047380Y-99987842D02*
X189047380Y-100502127D01*
X189047380Y-100244985D02*
X188047380Y-100119985D01*
X188190238Y-100223556D01*
X188285476Y-100321175D01*
X188333095Y-100412842D01*
X189047380Y-99602127D02*
X188047380Y-99477127D01*
X189047380Y-99087842D02*
X188475952Y-99402127D01*
X188047380Y-98962842D02*
X188618809Y-99548556D01*
%TO.C,R3*%
X177617380Y-71921666D02*
X177141190Y-72255000D01*
X177617380Y-72493095D02*
X176617380Y-72493095D01*
X176617380Y-72112142D01*
X176665000Y-72016904D01*
X176712619Y-71969285D01*
X176807857Y-71921666D01*
X176950714Y-71921666D01*
X177045952Y-71969285D01*
X177093571Y-72016904D01*
X177141190Y-72112142D01*
X177141190Y-72493095D01*
X176617380Y-71588333D02*
X176617380Y-70969285D01*
X176998333Y-71302619D01*
X176998333Y-71159761D01*
X177045952Y-71064523D01*
X177093571Y-71016904D01*
X177188809Y-70969285D01*
X177426904Y-70969285D01*
X177522142Y-71016904D01*
X177569761Y-71064523D01*
X177617380Y-71159761D01*
X177617380Y-71445476D01*
X177569761Y-71540714D01*
X177522142Y-71588333D01*
X178887380Y-72047842D02*
X178887380Y-72562127D01*
X178887380Y-72304985D02*
X177887380Y-72179985D01*
X178030238Y-72283556D01*
X178125476Y-72381175D01*
X178173095Y-72472842D01*
X178887380Y-71662127D02*
X177887380Y-71537127D01*
X178887380Y-71147842D02*
X178315952Y-71462127D01*
X177887380Y-71022842D02*
X178458809Y-71608556D01*
%TO.C,R5*%
X152217380Y-72556666D02*
X151741190Y-72890000D01*
X152217380Y-73128095D02*
X151217380Y-73128095D01*
X151217380Y-72747142D01*
X151265000Y-72651904D01*
X151312619Y-72604285D01*
X151407857Y-72556666D01*
X151550714Y-72556666D01*
X151645952Y-72604285D01*
X151693571Y-72651904D01*
X151741190Y-72747142D01*
X151741190Y-73128095D01*
X151217380Y-71651904D02*
X151217380Y-72128095D01*
X151693571Y-72175714D01*
X151645952Y-72128095D01*
X151598333Y-72032857D01*
X151598333Y-71794761D01*
X151645952Y-71699523D01*
X151693571Y-71651904D01*
X151788809Y-71604285D01*
X152026904Y-71604285D01*
X152122142Y-71651904D01*
X152169761Y-71699523D01*
X152217380Y-71794761D01*
X152217380Y-72032857D01*
X152169761Y-72128095D01*
X152122142Y-72175714D01*
X152820714Y-73328080D02*
X153487380Y-73411413D01*
X152439761Y-73494747D02*
X153154047Y-73798318D01*
X153154047Y-73241175D01*
X153392142Y-72928080D02*
X153439761Y-72891175D01*
X153487380Y-72939985D01*
X153439761Y-72976889D01*
X153392142Y-72928080D01*
X153487380Y-72939985D01*
X152487380Y-72472127D02*
X152487380Y-71872127D01*
X153487380Y-72382842D01*
X153487380Y-71654270D02*
X152487380Y-71529270D01*
X153487380Y-71139985D02*
X152915952Y-71454270D01*
X152487380Y-71014985D02*
X153058809Y-71600699D01*
%TO.C,C1*%
X119213333Y-122912142D02*
X119165714Y-122959761D01*
X119022857Y-123007380D01*
X118927619Y-123007380D01*
X118784761Y-122959761D01*
X118689523Y-122864523D01*
X118641904Y-122769285D01*
X118594285Y-122578809D01*
X118594285Y-122435952D01*
X118641904Y-122245476D01*
X118689523Y-122150238D01*
X118784761Y-122055000D01*
X118927619Y-122007380D01*
X119022857Y-122007380D01*
X119165714Y-122055000D01*
X119213333Y-122102619D01*
X120165714Y-123007380D02*
X119594285Y-123007380D01*
X119880000Y-123007380D02*
X119880000Y-122007380D01*
X119784761Y-122150238D01*
X119689523Y-122245476D01*
X119594285Y-122293095D01*
X122371443Y-122007380D02*
X122457157Y-122007380D01*
X122536919Y-122055000D01*
X122573824Y-122102619D01*
X122604776Y-122197857D01*
X122623824Y-122388333D01*
X122594062Y-122626428D01*
X122527395Y-122816904D01*
X122472633Y-122912142D01*
X122423824Y-122959761D01*
X122332157Y-123007380D01*
X122246443Y-123007380D01*
X122166681Y-122959761D01*
X122129776Y-122912142D01*
X122098824Y-122816904D01*
X122079776Y-122626428D01*
X122109538Y-122388333D01*
X122176205Y-122197857D01*
X122230967Y-122102619D01*
X122279776Y-122055000D01*
X122371443Y-122007380D01*
X122944062Y-122912142D02*
X122980967Y-122959761D01*
X122932157Y-123007380D01*
X122895252Y-122959761D01*
X122944062Y-122912142D01*
X122932157Y-123007380D01*
X123832157Y-123007380D02*
X123317872Y-123007380D01*
X123575014Y-123007380D02*
X123700014Y-122007380D01*
X123596443Y-122150238D01*
X123498824Y-122245476D01*
X123407157Y-122293095D01*
X124686919Y-122340714D02*
X124603586Y-123007380D01*
X124301205Y-122340714D02*
X124235729Y-122864523D01*
X124266681Y-122959761D01*
X124346443Y-123007380D01*
X124475014Y-123007380D01*
X124566681Y-122959761D01*
X124615491Y-122912142D01*
X125397633Y-122483571D02*
X125097633Y-122483571D01*
X125032157Y-123007380D02*
X125157157Y-122007380D01*
X125585729Y-122007380D01*
%TO.C,C2*%
X139533333Y-122912142D02*
X139485714Y-122959761D01*
X139342857Y-123007380D01*
X139247619Y-123007380D01*
X139104761Y-122959761D01*
X139009523Y-122864523D01*
X138961904Y-122769285D01*
X138914285Y-122578809D01*
X138914285Y-122435952D01*
X138961904Y-122245476D01*
X139009523Y-122150238D01*
X139104761Y-122055000D01*
X139247619Y-122007380D01*
X139342857Y-122007380D01*
X139485714Y-122055000D01*
X139533333Y-122102619D01*
X139914285Y-122102619D02*
X139961904Y-122055000D01*
X140057142Y-122007380D01*
X140295238Y-122007380D01*
X140390476Y-122055000D01*
X140438095Y-122102619D01*
X140485714Y-122197857D01*
X140485714Y-122293095D01*
X140438095Y-122435952D01*
X139866666Y-123007380D01*
X140485714Y-123007380D01*
X142691443Y-122007380D02*
X142777157Y-122007380D01*
X142856919Y-122055000D01*
X142893824Y-122102619D01*
X142924776Y-122197857D01*
X142943824Y-122388333D01*
X142914062Y-122626428D01*
X142847395Y-122816904D01*
X142792633Y-122912142D01*
X142743824Y-122959761D01*
X142652157Y-123007380D01*
X142566443Y-123007380D01*
X142486681Y-122959761D01*
X142449776Y-122912142D01*
X142418824Y-122816904D01*
X142399776Y-122626428D01*
X142429538Y-122388333D01*
X142496205Y-122197857D01*
X142550967Y-122102619D01*
X142599776Y-122055000D01*
X142691443Y-122007380D01*
X143264062Y-122912142D02*
X143300967Y-122959761D01*
X143252157Y-123007380D01*
X143215252Y-122959761D01*
X143264062Y-122912142D01*
X143252157Y-123007380D01*
X144152157Y-123007380D02*
X143637872Y-123007380D01*
X143895014Y-123007380D02*
X144020014Y-122007380D01*
X143916443Y-122150238D01*
X143818824Y-122245476D01*
X143727157Y-122293095D01*
X145006919Y-122340714D02*
X144923586Y-123007380D01*
X144621205Y-122340714D02*
X144555729Y-122864523D01*
X144586681Y-122959761D01*
X144666443Y-123007380D01*
X144795014Y-123007380D01*
X144886681Y-122959761D01*
X144935491Y-122912142D01*
X145717633Y-122483571D02*
X145417633Y-122483571D01*
X145352157Y-123007380D02*
X145477157Y-122007380D01*
X145905729Y-122007380D01*
%TO.C,C3*%
X170013333Y-122912142D02*
X169965714Y-122959761D01*
X169822857Y-123007380D01*
X169727619Y-123007380D01*
X169584761Y-122959761D01*
X169489523Y-122864523D01*
X169441904Y-122769285D01*
X169394285Y-122578809D01*
X169394285Y-122435952D01*
X169441904Y-122245476D01*
X169489523Y-122150238D01*
X169584761Y-122055000D01*
X169727619Y-122007380D01*
X169822857Y-122007380D01*
X169965714Y-122055000D01*
X170013333Y-122102619D01*
X170346666Y-122007380D02*
X170965714Y-122007380D01*
X170632380Y-122388333D01*
X170775238Y-122388333D01*
X170870476Y-122435952D01*
X170918095Y-122483571D01*
X170965714Y-122578809D01*
X170965714Y-122816904D01*
X170918095Y-122912142D01*
X170870476Y-122959761D01*
X170775238Y-123007380D01*
X170489523Y-123007380D01*
X170394285Y-122959761D01*
X170346666Y-122912142D01*
X173171443Y-122007380D02*
X173257157Y-122007380D01*
X173336919Y-122055000D01*
X173373824Y-122102619D01*
X173404776Y-122197857D01*
X173423824Y-122388333D01*
X173394062Y-122626428D01*
X173327395Y-122816904D01*
X173272633Y-122912142D01*
X173223824Y-122959761D01*
X173132157Y-123007380D01*
X173046443Y-123007380D01*
X172966681Y-122959761D01*
X172929776Y-122912142D01*
X172898824Y-122816904D01*
X172879776Y-122626428D01*
X172909538Y-122388333D01*
X172976205Y-122197857D01*
X173030967Y-122102619D01*
X173079776Y-122055000D01*
X173171443Y-122007380D01*
X173744062Y-122912142D02*
X173780967Y-122959761D01*
X173732157Y-123007380D01*
X173695252Y-122959761D01*
X173744062Y-122912142D01*
X173732157Y-123007380D01*
X174632157Y-123007380D02*
X174117872Y-123007380D01*
X174375014Y-123007380D02*
X174500014Y-122007380D01*
X174396443Y-122150238D01*
X174298824Y-122245476D01*
X174207157Y-122293095D01*
X175486919Y-122340714D02*
X175403586Y-123007380D01*
X175101205Y-122340714D02*
X175035729Y-122864523D01*
X175066681Y-122959761D01*
X175146443Y-123007380D01*
X175275014Y-123007380D01*
X175366681Y-122959761D01*
X175415491Y-122912142D01*
X176197633Y-122483571D02*
X175897633Y-122483571D01*
X175832157Y-123007380D02*
X175957157Y-122007380D01*
X176385729Y-122007380D01*
%TO.C,C4*%
X149693333Y-122912142D02*
X149645714Y-122959761D01*
X149502857Y-123007380D01*
X149407619Y-123007380D01*
X149264761Y-122959761D01*
X149169523Y-122864523D01*
X149121904Y-122769285D01*
X149074285Y-122578809D01*
X149074285Y-122435952D01*
X149121904Y-122245476D01*
X149169523Y-122150238D01*
X149264761Y-122055000D01*
X149407619Y-122007380D01*
X149502857Y-122007380D01*
X149645714Y-122055000D01*
X149693333Y-122102619D01*
X150550476Y-122340714D02*
X150550476Y-123007380D01*
X150312380Y-121959761D02*
X150074285Y-122674047D01*
X150693333Y-122674047D01*
X152851443Y-122007380D02*
X152937157Y-122007380D01*
X153016919Y-122055000D01*
X153053824Y-122102619D01*
X153084776Y-122197857D01*
X153103824Y-122388333D01*
X153074062Y-122626428D01*
X153007395Y-122816904D01*
X152952633Y-122912142D01*
X152903824Y-122959761D01*
X152812157Y-123007380D01*
X152726443Y-123007380D01*
X152646681Y-122959761D01*
X152609776Y-122912142D01*
X152578824Y-122816904D01*
X152559776Y-122626428D01*
X152589538Y-122388333D01*
X152656205Y-122197857D01*
X152710967Y-122102619D01*
X152759776Y-122055000D01*
X152851443Y-122007380D01*
X153424062Y-122912142D02*
X153460967Y-122959761D01*
X153412157Y-123007380D01*
X153375252Y-122959761D01*
X153424062Y-122912142D01*
X153412157Y-123007380D01*
X154312157Y-123007380D02*
X153797872Y-123007380D01*
X154055014Y-123007380D02*
X154180014Y-122007380D01*
X154076443Y-122150238D01*
X153978824Y-122245476D01*
X153887157Y-122293095D01*
X155166919Y-122340714D02*
X155083586Y-123007380D01*
X154781205Y-122340714D02*
X154715729Y-122864523D01*
X154746681Y-122959761D01*
X154826443Y-123007380D01*
X154955014Y-123007380D01*
X155046681Y-122959761D01*
X155095491Y-122912142D01*
X155877633Y-122483571D02*
X155577633Y-122483571D01*
X155512157Y-123007380D02*
X155637157Y-122007380D01*
X156065729Y-122007380D01*
%TO.C,C6*%
X164298333Y-74652142D02*
X164250714Y-74699761D01*
X164107857Y-74747380D01*
X164012619Y-74747380D01*
X163869761Y-74699761D01*
X163774523Y-74604523D01*
X163726904Y-74509285D01*
X163679285Y-74318809D01*
X163679285Y-74175952D01*
X163726904Y-73985476D01*
X163774523Y-73890238D01*
X163869761Y-73795000D01*
X164012619Y-73747380D01*
X164107857Y-73747380D01*
X164250714Y-73795000D01*
X164298333Y-73842619D01*
X165155476Y-73747380D02*
X164965000Y-73747380D01*
X164869761Y-73795000D01*
X164822142Y-73842619D01*
X164726904Y-73985476D01*
X164679285Y-74175952D01*
X164679285Y-74556904D01*
X164726904Y-74652142D01*
X164774523Y-74699761D01*
X164869761Y-74747380D01*
X165060238Y-74747380D01*
X165155476Y-74699761D01*
X165203095Y-74652142D01*
X165250714Y-74556904D01*
X165250714Y-74318809D01*
X165203095Y-74223571D01*
X165155476Y-74175952D01*
X165060238Y-74128333D01*
X164869761Y-74128333D01*
X164774523Y-74175952D01*
X164726904Y-74223571D01*
X164679285Y-74318809D01*
X163011443Y-75017380D02*
X163097157Y-75017380D01*
X163176919Y-75065000D01*
X163213824Y-75112619D01*
X163244776Y-75207857D01*
X163263824Y-75398333D01*
X163234062Y-75636428D01*
X163167395Y-75826904D01*
X163112633Y-75922142D01*
X163063824Y-75969761D01*
X162972157Y-76017380D01*
X162886443Y-76017380D01*
X162806681Y-75969761D01*
X162769776Y-75922142D01*
X162738824Y-75826904D01*
X162719776Y-75636428D01*
X162749538Y-75398333D01*
X162816205Y-75207857D01*
X162870967Y-75112619D01*
X162919776Y-75065000D01*
X163011443Y-75017380D01*
X163584062Y-75922142D02*
X163620967Y-75969761D01*
X163572157Y-76017380D01*
X163535252Y-75969761D01*
X163584062Y-75922142D01*
X163572157Y-76017380D01*
X164472157Y-76017380D02*
X163957872Y-76017380D01*
X164215014Y-76017380D02*
X164340014Y-75017380D01*
X164236443Y-75160238D01*
X164138824Y-75255476D01*
X164047157Y-75303095D01*
X165326919Y-75350714D02*
X165243586Y-76017380D01*
X164941205Y-75350714D02*
X164875729Y-75874523D01*
X164906681Y-75969761D01*
X164986443Y-76017380D01*
X165115014Y-76017380D01*
X165206681Y-75969761D01*
X165255491Y-75922142D01*
X166037633Y-75493571D02*
X165737633Y-75493571D01*
X165672157Y-76017380D02*
X165797157Y-75017380D01*
X166225729Y-75017380D01*
%TO.C,C7*%
X176998333Y-74652142D02*
X176950714Y-74699761D01*
X176807857Y-74747380D01*
X176712619Y-74747380D01*
X176569761Y-74699761D01*
X176474523Y-74604523D01*
X176426904Y-74509285D01*
X176379285Y-74318809D01*
X176379285Y-74175952D01*
X176426904Y-73985476D01*
X176474523Y-73890238D01*
X176569761Y-73795000D01*
X176712619Y-73747380D01*
X176807857Y-73747380D01*
X176950714Y-73795000D01*
X176998333Y-73842619D01*
X177331666Y-73747380D02*
X177998333Y-73747380D01*
X177569761Y-74747380D01*
X175711443Y-75017380D02*
X175797157Y-75017380D01*
X175876919Y-75065000D01*
X175913824Y-75112619D01*
X175944776Y-75207857D01*
X175963824Y-75398333D01*
X175934062Y-75636428D01*
X175867395Y-75826904D01*
X175812633Y-75922142D01*
X175763824Y-75969761D01*
X175672157Y-76017380D01*
X175586443Y-76017380D01*
X175506681Y-75969761D01*
X175469776Y-75922142D01*
X175438824Y-75826904D01*
X175419776Y-75636428D01*
X175449538Y-75398333D01*
X175516205Y-75207857D01*
X175570967Y-75112619D01*
X175619776Y-75065000D01*
X175711443Y-75017380D01*
X176284062Y-75922142D02*
X176320967Y-75969761D01*
X176272157Y-76017380D01*
X176235252Y-75969761D01*
X176284062Y-75922142D01*
X176272157Y-76017380D01*
X177172157Y-76017380D02*
X176657872Y-76017380D01*
X176915014Y-76017380D02*
X177040014Y-75017380D01*
X176936443Y-75160238D01*
X176838824Y-75255476D01*
X176747157Y-75303095D01*
X178026919Y-75350714D02*
X177943586Y-76017380D01*
X177641205Y-75350714D02*
X177575729Y-75874523D01*
X177606681Y-75969761D01*
X177686443Y-76017380D01*
X177815014Y-76017380D01*
X177906681Y-75969761D01*
X177955491Y-75922142D01*
X178737633Y-75493571D02*
X178437633Y-75493571D01*
X178372157Y-76017380D02*
X178497157Y-75017380D01*
X178925729Y-75017380D01*
%TO.C,C8*%
X190333333Y-94972142D02*
X190285714Y-95019761D01*
X190142857Y-95067380D01*
X190047619Y-95067380D01*
X189904761Y-95019761D01*
X189809523Y-94924523D01*
X189761904Y-94829285D01*
X189714285Y-94638809D01*
X189714285Y-94495952D01*
X189761904Y-94305476D01*
X189809523Y-94210238D01*
X189904761Y-94115000D01*
X190047619Y-94067380D01*
X190142857Y-94067380D01*
X190285714Y-94115000D01*
X190333333Y-94162619D01*
X190904761Y-94495952D02*
X190809523Y-94448333D01*
X190761904Y-94400714D01*
X190714285Y-94305476D01*
X190714285Y-94257857D01*
X190761904Y-94162619D01*
X190809523Y-94115000D01*
X190904761Y-94067380D01*
X191095238Y-94067380D01*
X191190476Y-94115000D01*
X191238095Y-94162619D01*
X191285714Y-94257857D01*
X191285714Y-94305476D01*
X191238095Y-94400714D01*
X191190476Y-94448333D01*
X191095238Y-94495952D01*
X190904761Y-94495952D01*
X190809523Y-94543571D01*
X190761904Y-94591190D01*
X190714285Y-94686428D01*
X190714285Y-94876904D01*
X190761904Y-94972142D01*
X190809523Y-95019761D01*
X190904761Y-95067380D01*
X191095238Y-95067380D01*
X191190476Y-95019761D01*
X191238095Y-94972142D01*
X191285714Y-94876904D01*
X191285714Y-94686428D01*
X191238095Y-94591190D01*
X191190476Y-94543571D01*
X191095238Y-94495952D01*
X193491443Y-94067380D02*
X193577157Y-94067380D01*
X193656919Y-94115000D01*
X193693824Y-94162619D01*
X193724776Y-94257857D01*
X193743824Y-94448333D01*
X193714062Y-94686428D01*
X193647395Y-94876904D01*
X193592633Y-94972142D01*
X193543824Y-95019761D01*
X193452157Y-95067380D01*
X193366443Y-95067380D01*
X193286681Y-95019761D01*
X193249776Y-94972142D01*
X193218824Y-94876904D01*
X193199776Y-94686428D01*
X193229538Y-94448333D01*
X193296205Y-94257857D01*
X193350967Y-94162619D01*
X193399776Y-94115000D01*
X193491443Y-94067380D01*
X194064062Y-94972142D02*
X194100967Y-95019761D01*
X194052157Y-95067380D01*
X194015252Y-95019761D01*
X194064062Y-94972142D01*
X194052157Y-95067380D01*
X194952157Y-95067380D02*
X194437872Y-95067380D01*
X194695014Y-95067380D02*
X194820014Y-94067380D01*
X194716443Y-94210238D01*
X194618824Y-94305476D01*
X194527157Y-94353095D01*
X195806919Y-94400714D02*
X195723586Y-95067380D01*
X195421205Y-94400714D02*
X195355729Y-94924523D01*
X195386681Y-95019761D01*
X195466443Y-95067380D01*
X195595014Y-95067380D01*
X195686681Y-95019761D01*
X195735491Y-94972142D01*
X196517633Y-94543571D02*
X196217633Y-94543571D01*
X196152157Y-95067380D02*
X196277157Y-94067380D01*
X196705729Y-94067380D01*
%TO.C,C9*%
X154773333Y-77192142D02*
X154725714Y-77239761D01*
X154582857Y-77287380D01*
X154487619Y-77287380D01*
X154344761Y-77239761D01*
X154249523Y-77144523D01*
X154201904Y-77049285D01*
X154154285Y-76858809D01*
X154154285Y-76715952D01*
X154201904Y-76525476D01*
X154249523Y-76430238D01*
X154344761Y-76335000D01*
X154487619Y-76287380D01*
X154582857Y-76287380D01*
X154725714Y-76335000D01*
X154773333Y-76382619D01*
X155249523Y-77287380D02*
X155440000Y-77287380D01*
X155535238Y-77239761D01*
X155582857Y-77192142D01*
X155678095Y-77049285D01*
X155725714Y-76858809D01*
X155725714Y-76477857D01*
X155678095Y-76382619D01*
X155630476Y-76335000D01*
X155535238Y-76287380D01*
X155344761Y-76287380D01*
X155249523Y-76335000D01*
X155201904Y-76382619D01*
X155154285Y-76477857D01*
X155154285Y-76715952D01*
X155201904Y-76811190D01*
X155249523Y-76858809D01*
X155344761Y-76906428D01*
X155535238Y-76906428D01*
X155630476Y-76858809D01*
X155678095Y-76811190D01*
X155725714Y-76715952D01*
X157931443Y-76287380D02*
X158017157Y-76287380D01*
X158096919Y-76335000D01*
X158133824Y-76382619D01*
X158164776Y-76477857D01*
X158183824Y-76668333D01*
X158154062Y-76906428D01*
X158087395Y-77096904D01*
X158032633Y-77192142D01*
X157983824Y-77239761D01*
X157892157Y-77287380D01*
X157806443Y-77287380D01*
X157726681Y-77239761D01*
X157689776Y-77192142D01*
X157658824Y-77096904D01*
X157639776Y-76906428D01*
X157669538Y-76668333D01*
X157736205Y-76477857D01*
X157790967Y-76382619D01*
X157839776Y-76335000D01*
X157931443Y-76287380D01*
X158504062Y-77192142D02*
X158540967Y-77239761D01*
X158492157Y-77287380D01*
X158455252Y-77239761D01*
X158504062Y-77192142D01*
X158492157Y-77287380D01*
X159392157Y-77287380D02*
X158877872Y-77287380D01*
X159135014Y-77287380D02*
X159260014Y-76287380D01*
X159156443Y-76430238D01*
X159058824Y-76525476D01*
X158967157Y-76573095D01*
X160246919Y-76620714D02*
X160163586Y-77287380D01*
X159861205Y-76620714D02*
X159795729Y-77144523D01*
X159826681Y-77239761D01*
X159906443Y-77287380D01*
X160035014Y-77287380D01*
X160126681Y-77239761D01*
X160175491Y-77192142D01*
X160957633Y-76763571D02*
X160657633Y-76763571D01*
X160592157Y-77287380D02*
X160717157Y-76287380D01*
X161145729Y-76287380D01*
%TO.C,C10*%
X126658642Y-74874357D02*
X126706261Y-74921976D01*
X126753880Y-75064833D01*
X126753880Y-75160071D01*
X126706261Y-75302928D01*
X126611023Y-75398166D01*
X126515785Y-75445785D01*
X126325309Y-75493404D01*
X126182452Y-75493404D01*
X125991976Y-75445785D01*
X125896738Y-75398166D01*
X125801500Y-75302928D01*
X125753880Y-75160071D01*
X125753880Y-75064833D01*
X125801500Y-74921976D01*
X125849119Y-74874357D01*
X126753880Y-73921976D02*
X126753880Y-74493404D01*
X126753880Y-74207690D02*
X125753880Y-74207690D01*
X125896738Y-74302928D01*
X125991976Y-74398166D01*
X126039595Y-74493404D01*
X125753880Y-73302928D02*
X125753880Y-73207690D01*
X125801500Y-73112452D01*
X125849119Y-73064833D01*
X125944357Y-73017214D01*
X126134833Y-72969595D01*
X126372928Y-72969595D01*
X126563404Y-73017214D01*
X126658642Y-73064833D01*
X126706261Y-73112452D01*
X126753880Y-73207690D01*
X126753880Y-73302928D01*
X126706261Y-73398166D01*
X126658642Y-73445785D01*
X126563404Y-73493404D01*
X126372928Y-73541023D01*
X126134833Y-73541023D01*
X125944357Y-73493404D01*
X125849119Y-73445785D01*
X125801500Y-73398166D01*
X125753880Y-73302928D01*
X127087380Y-75748556D02*
X127087380Y-75662842D01*
X127135000Y-75583080D01*
X127182619Y-75546175D01*
X127277857Y-75515223D01*
X127468333Y-75496175D01*
X127706428Y-75525937D01*
X127896904Y-75592604D01*
X127992142Y-75647366D01*
X128039761Y-75696175D01*
X128087380Y-75787842D01*
X128087380Y-75873556D01*
X128039761Y-75953318D01*
X127992142Y-75990223D01*
X127896904Y-76021175D01*
X127706428Y-76040223D01*
X127468333Y-76010461D01*
X127277857Y-75943794D01*
X127182619Y-75889032D01*
X127135000Y-75840223D01*
X127087380Y-75748556D01*
X127992142Y-75175937D02*
X128039761Y-75139032D01*
X128087380Y-75187842D01*
X128039761Y-75224747D01*
X127992142Y-75175937D01*
X128087380Y-75187842D01*
X128087380Y-74287842D02*
X128087380Y-74802127D01*
X128087380Y-74544985D02*
X127087380Y-74419985D01*
X127230238Y-74523556D01*
X127325476Y-74621175D01*
X127373095Y-74712842D01*
X127420714Y-73433080D02*
X128087380Y-73516413D01*
X127420714Y-73818794D02*
X127944523Y-73884270D01*
X128039761Y-73853318D01*
X128087380Y-73773556D01*
X128087380Y-73644985D01*
X128039761Y-73553318D01*
X127992142Y-73504508D01*
X127563571Y-72722366D02*
X127563571Y-73022366D01*
X128087380Y-73087842D02*
X127087380Y-72962842D01*
X127087380Y-72534270D01*
%TO.C,C11*%
X109212142Y-84812142D02*
X109164523Y-84859761D01*
X109021666Y-84907380D01*
X108926428Y-84907380D01*
X108783571Y-84859761D01*
X108688333Y-84764523D01*
X108640714Y-84669285D01*
X108593095Y-84478809D01*
X108593095Y-84335952D01*
X108640714Y-84145476D01*
X108688333Y-84050238D01*
X108783571Y-83955000D01*
X108926428Y-83907380D01*
X109021666Y-83907380D01*
X109164523Y-83955000D01*
X109212142Y-84002619D01*
X110164523Y-84907380D02*
X109593095Y-84907380D01*
X109878809Y-84907380D02*
X109878809Y-83907380D01*
X109783571Y-84050238D01*
X109688333Y-84145476D01*
X109593095Y-84193095D01*
X111116904Y-84907380D02*
X110545476Y-84907380D01*
X110831190Y-84907380D02*
X110831190Y-83907380D01*
X110735952Y-84050238D01*
X110640714Y-84145476D01*
X110545476Y-84193095D01*
X112211443Y-83907380D02*
X112297157Y-83907380D01*
X112376919Y-83955000D01*
X112413824Y-84002619D01*
X112444776Y-84097857D01*
X112463824Y-84288333D01*
X112434062Y-84526428D01*
X112367395Y-84716904D01*
X112312633Y-84812142D01*
X112263824Y-84859761D01*
X112172157Y-84907380D01*
X112086443Y-84907380D01*
X112006681Y-84859761D01*
X111969776Y-84812142D01*
X111938824Y-84716904D01*
X111919776Y-84526428D01*
X111949538Y-84288333D01*
X112016205Y-84097857D01*
X112070967Y-84002619D01*
X112119776Y-83955000D01*
X112211443Y-83907380D01*
X112784062Y-84812142D02*
X112820967Y-84859761D01*
X112772157Y-84907380D01*
X112735252Y-84859761D01*
X112784062Y-84812142D01*
X112772157Y-84907380D01*
X113672157Y-84907380D02*
X113157872Y-84907380D01*
X113415014Y-84907380D02*
X113540014Y-83907380D01*
X113436443Y-84050238D01*
X113338824Y-84145476D01*
X113247157Y-84193095D01*
X114526919Y-84240714D02*
X114443586Y-84907380D01*
X114141205Y-84240714D02*
X114075729Y-84764523D01*
X114106681Y-84859761D01*
X114186443Y-84907380D01*
X114315014Y-84907380D01*
X114406681Y-84859761D01*
X114455491Y-84812142D01*
X115237633Y-84383571D02*
X114937633Y-84383571D01*
X114872157Y-84907380D02*
X114997157Y-83907380D01*
X115425729Y-83907380D01*
%TO.C,C12*%
X126404642Y-79954357D02*
X126452261Y-80001976D01*
X126499880Y-80144833D01*
X126499880Y-80240071D01*
X126452261Y-80382928D01*
X126357023Y-80478166D01*
X126261785Y-80525785D01*
X126071309Y-80573404D01*
X125928452Y-80573404D01*
X125737976Y-80525785D01*
X125642738Y-80478166D01*
X125547500Y-80382928D01*
X125499880Y-80240071D01*
X125499880Y-80144833D01*
X125547500Y-80001976D01*
X125595119Y-79954357D01*
X126499880Y-79001976D02*
X126499880Y-79573404D01*
X126499880Y-79287690D02*
X125499880Y-79287690D01*
X125642738Y-79382928D01*
X125737976Y-79478166D01*
X125785595Y-79573404D01*
X125595119Y-78621023D02*
X125547500Y-78573404D01*
X125499880Y-78478166D01*
X125499880Y-78240071D01*
X125547500Y-78144833D01*
X125595119Y-78097214D01*
X125690357Y-78049595D01*
X125785595Y-78049595D01*
X125928452Y-78097214D01*
X126499880Y-78668642D01*
X126499880Y-78049595D01*
X127103214Y-80441651D02*
X127769880Y-80524985D01*
X126722261Y-80608318D02*
X127436547Y-80911889D01*
X127436547Y-80354747D01*
X126769880Y-80014270D02*
X126769880Y-79414270D01*
X127769880Y-79924985D01*
X127103214Y-78727366D02*
X127769880Y-78810699D01*
X127103214Y-79113080D02*
X127627023Y-79178556D01*
X127722261Y-79147604D01*
X127769880Y-79067842D01*
X127769880Y-78939270D01*
X127722261Y-78847604D01*
X127674642Y-78798794D01*
X127246071Y-78016651D02*
X127246071Y-78316651D01*
X127769880Y-78382127D02*
X126769880Y-78257127D01*
X126769880Y-77828556D01*
X118681547Y-76588928D02*
X119443452Y-76588928D01*
X119062500Y-76969880D02*
X119062500Y-76207976D01*
%TO.C,C5*%
X187793333Y-121007142D02*
X187745714Y-121054761D01*
X187602857Y-121102380D01*
X187507619Y-121102380D01*
X187364761Y-121054761D01*
X187269523Y-120959523D01*
X187221904Y-120864285D01*
X187174285Y-120673809D01*
X187174285Y-120530952D01*
X187221904Y-120340476D01*
X187269523Y-120245238D01*
X187364761Y-120150000D01*
X187507619Y-120102380D01*
X187602857Y-120102380D01*
X187745714Y-120150000D01*
X187793333Y-120197619D01*
X188698095Y-120102380D02*
X188221904Y-120102380D01*
X188174285Y-120578571D01*
X188221904Y-120530952D01*
X188317142Y-120483333D01*
X188555238Y-120483333D01*
X188650476Y-120530952D01*
X188698095Y-120578571D01*
X188745714Y-120673809D01*
X188745714Y-120911904D01*
X188698095Y-121007142D01*
X188650476Y-121054761D01*
X188555238Y-121102380D01*
X188317142Y-121102380D01*
X188221904Y-121054761D01*
X188174285Y-121007142D01*
X192221443Y-122007380D02*
X192307157Y-122007380D01*
X192386919Y-122055000D01*
X192423824Y-122102619D01*
X192454776Y-122197857D01*
X192473824Y-122388333D01*
X192444062Y-122626428D01*
X192377395Y-122816904D01*
X192322633Y-122912142D01*
X192273824Y-122959761D01*
X192182157Y-123007380D01*
X192096443Y-123007380D01*
X192016681Y-122959761D01*
X191979776Y-122912142D01*
X191948824Y-122816904D01*
X191929776Y-122626428D01*
X191959538Y-122388333D01*
X192026205Y-122197857D01*
X192080967Y-122102619D01*
X192129776Y-122055000D01*
X192221443Y-122007380D01*
X192794062Y-122912142D02*
X192830967Y-122959761D01*
X192782157Y-123007380D01*
X192745252Y-122959761D01*
X192794062Y-122912142D01*
X192782157Y-123007380D01*
X193682157Y-123007380D02*
X193167872Y-123007380D01*
X193425014Y-123007380D02*
X193550014Y-122007380D01*
X193446443Y-122150238D01*
X193348824Y-122245476D01*
X193257157Y-122293095D01*
X194536919Y-122340714D02*
X194453586Y-123007380D01*
X194151205Y-122340714D02*
X194085729Y-122864523D01*
X194116681Y-122959761D01*
X194196443Y-123007380D01*
X194325014Y-123007380D01*
X194416681Y-122959761D01*
X194465491Y-122912142D01*
X195247633Y-122483571D02*
X194947633Y-122483571D01*
X194882157Y-123007380D02*
X195007157Y-122007380D01*
X195435729Y-122007380D01*
%TO.C,F1*%
X119080000Y-62158571D02*
X118780000Y-62158571D01*
X118780000Y-62682380D02*
X118780000Y-61682380D01*
X119208571Y-61682380D01*
X120022857Y-62682380D02*
X119508571Y-62682380D01*
X119765714Y-62682380D02*
X119765714Y-61682380D01*
X119680000Y-61825238D01*
X119594285Y-61920476D01*
X119508571Y-61968095D01*
X122953586Y-62682380D02*
X122439300Y-62682380D01*
X122696443Y-62682380D02*
X122821443Y-61682380D01*
X122717872Y-61825238D01*
X122620252Y-61920476D01*
X122528586Y-61968095D01*
X123351205Y-62587142D02*
X123388110Y-62634761D01*
X123339300Y-62682380D01*
X123302395Y-62634761D01*
X123351205Y-62587142D01*
X123339300Y-62682380D01*
X124239300Y-62682380D02*
X123725014Y-62682380D01*
X123982157Y-62682380D02*
X124107157Y-61682380D01*
X124003586Y-61825238D01*
X123905967Y-61920476D01*
X123814300Y-61968095D01*
X124617872Y-62396666D02*
X125046443Y-62396666D01*
X124496443Y-62682380D02*
X124921443Y-61682380D01*
X125096443Y-62682380D01*
%TO.C,R4*%
X126817380Y-118276666D02*
X126341190Y-118610000D01*
X126817380Y-118848095D02*
X125817380Y-118848095D01*
X125817380Y-118467142D01*
X125865000Y-118371904D01*
X125912619Y-118324285D01*
X126007857Y-118276666D01*
X126150714Y-118276666D01*
X126245952Y-118324285D01*
X126293571Y-118371904D01*
X126341190Y-118467142D01*
X126341190Y-118848095D01*
X126150714Y-117419523D02*
X126817380Y-117419523D01*
X125769761Y-117657619D02*
X126484047Y-117895714D01*
X126484047Y-117276666D01*
X127420714Y-119048080D02*
X128087380Y-119131413D01*
X127039761Y-119214747D02*
X127754047Y-119518318D01*
X127754047Y-118961175D01*
X127992142Y-118648080D02*
X128039761Y-118611175D01*
X128087380Y-118659985D01*
X128039761Y-118696889D01*
X127992142Y-118648080D01*
X128087380Y-118659985D01*
X127087380Y-118192127D02*
X127087380Y-117592127D01*
X128087380Y-118102842D01*
X128087380Y-117374270D02*
X127087380Y-117249270D01*
X128087380Y-116859985D02*
X127515952Y-117174270D01*
X127087380Y-116734985D02*
X127658809Y-117320699D01*
%TO.C,U10*%
X116927380Y-79343095D02*
X117736904Y-79343095D01*
X117832142Y-79295476D01*
X117879761Y-79247857D01*
X117927380Y-79152619D01*
X117927380Y-78962142D01*
X117879761Y-78866904D01*
X117832142Y-78819285D01*
X117736904Y-78771666D01*
X116927380Y-78771666D01*
X117927380Y-77771666D02*
X117927380Y-78343095D01*
X117927380Y-78057380D02*
X116927380Y-78057380D01*
X117070238Y-78152619D01*
X117165476Y-78247857D01*
X117213095Y-78343095D01*
X116927380Y-77152619D02*
X116927380Y-77057380D01*
X116975000Y-76962142D01*
X117022619Y-76914523D01*
X117117857Y-76866904D01*
X117308333Y-76819285D01*
X117546428Y-76819285D01*
X117736904Y-76866904D01*
X117832142Y-76914523D01*
X117879761Y-76962142D01*
X117927380Y-77057380D01*
X117927380Y-77152619D01*
X117879761Y-77247857D01*
X117832142Y-77295476D01*
X117736904Y-77343095D01*
X117546428Y-77390714D01*
X117308333Y-77390714D01*
X117117857Y-77343095D01*
X117022619Y-77295476D01*
X116975000Y-77247857D01*
X116927380Y-77152619D01*
X116927380Y-70849985D02*
X116927380Y-70335699D01*
X117927380Y-70717842D02*
X116927380Y-70592842D01*
X117403571Y-69795223D02*
X117451190Y-69672604D01*
X117498809Y-69635699D01*
X117594047Y-69604747D01*
X117736904Y-69622604D01*
X117832142Y-69677366D01*
X117879761Y-69726175D01*
X117927380Y-69817842D01*
X117927380Y-70160699D01*
X116927380Y-70035699D01*
X116927380Y-69735699D01*
X116975000Y-69655937D01*
X117022619Y-69619032D01*
X117117857Y-69588080D01*
X117213095Y-69599985D01*
X117308333Y-69654747D01*
X117355952Y-69703556D01*
X117403571Y-69795223D01*
X117403571Y-70095223D01*
X117641666Y-69267842D02*
X117641666Y-68839270D01*
X117927380Y-69389270D02*
X116927380Y-68964270D01*
X117927380Y-68789270D01*
X117927380Y-68017842D02*
X117927380Y-68532127D01*
X117927380Y-68274985D02*
X116927380Y-68149985D01*
X117070238Y-68253556D01*
X117165476Y-68351175D01*
X117213095Y-68442842D01*
X117546428Y-67584508D02*
X117546428Y-66898794D01*
X116927380Y-66221413D02*
X116927380Y-66135699D01*
X116975000Y-66055937D01*
X117022619Y-66019032D01*
X117117857Y-65988080D01*
X117308333Y-65969032D01*
X117546428Y-65998794D01*
X117736904Y-66065461D01*
X117832142Y-66120223D01*
X117879761Y-66169032D01*
X117927380Y-66260699D01*
X117927380Y-66346413D01*
X117879761Y-66426175D01*
X117832142Y-66463080D01*
X117736904Y-66494032D01*
X117546428Y-66513080D01*
X117308333Y-66483318D01*
X117117857Y-66416651D01*
X117022619Y-66361889D01*
X116975000Y-66313080D01*
X116927380Y-66221413D01*
X116927380Y-65107127D02*
X116927380Y-65535699D01*
X117403571Y-65638080D01*
X117355952Y-65589270D01*
X117308333Y-65497604D01*
X117308333Y-65283318D01*
X117355952Y-65203556D01*
X117403571Y-65166651D01*
X117498809Y-65135699D01*
X117736904Y-65165461D01*
X117832142Y-65220223D01*
X117879761Y-65269032D01*
X117927380Y-65360699D01*
X117927380Y-65574985D01*
X117879761Y-65654747D01*
X117832142Y-65691651D01*
X117927380Y-64332127D02*
X117927380Y-64846413D01*
X117927380Y-64589270D02*
X116927380Y-64464270D01*
X117070238Y-64567842D01*
X117165476Y-64665461D01*
X117213095Y-64757127D01*
X117022619Y-63876175D02*
X116975000Y-63827366D01*
X116927380Y-63735699D01*
X116927380Y-63521413D01*
X116975000Y-63441651D01*
X117022619Y-63404747D01*
X117117857Y-63373794D01*
X117213095Y-63385699D01*
X117355952Y-63446413D01*
X117927380Y-64032127D01*
X117927380Y-63474985D01*
X117403571Y-63023794D02*
X117403571Y-62723794D01*
X117927380Y-62660699D02*
X117927380Y-63089270D01*
X116927380Y-62964270D01*
X116927380Y-62535699D01*
%TO.C,U1*%
X124547380Y-118871904D02*
X125356904Y-118871904D01*
X125452142Y-118824285D01*
X125499761Y-118776666D01*
X125547380Y-118681428D01*
X125547380Y-118490952D01*
X125499761Y-118395714D01*
X125452142Y-118348095D01*
X125356904Y-118300476D01*
X124547380Y-118300476D01*
X125547380Y-117300476D02*
X125547380Y-117871904D01*
X125547380Y-117586190D02*
X124547380Y-117586190D01*
X124690238Y-117681428D01*
X124785476Y-117776666D01*
X124833095Y-117871904D01*
X126245952Y-99575699D02*
X126198333Y-99655461D01*
X126150714Y-99692366D01*
X126055476Y-99723318D01*
X126007857Y-99717366D01*
X125912619Y-99662604D01*
X125865000Y-99613794D01*
X125817380Y-99522127D01*
X125817380Y-99350699D01*
X125865000Y-99270937D01*
X125912619Y-99234032D01*
X126007857Y-99203080D01*
X126055476Y-99209032D01*
X126150714Y-99263794D01*
X126198333Y-99312604D01*
X126245952Y-99404270D01*
X126245952Y-99575699D01*
X126293571Y-99667366D01*
X126341190Y-99716175D01*
X126436428Y-99770937D01*
X126626904Y-99794747D01*
X126722142Y-99763794D01*
X126769761Y-99726889D01*
X126817380Y-99647127D01*
X126817380Y-99475699D01*
X126769761Y-99384032D01*
X126722142Y-99335223D01*
X126626904Y-99280461D01*
X126436428Y-99256651D01*
X126341190Y-99287604D01*
X126293571Y-99324508D01*
X126245952Y-99404270D01*
X125912619Y-98848318D02*
X125865000Y-98799508D01*
X125817380Y-98707842D01*
X125817380Y-98493556D01*
X125865000Y-98413794D01*
X125912619Y-98376889D01*
X126007857Y-98345937D01*
X126103095Y-98357842D01*
X126245952Y-98418556D01*
X126817380Y-99004270D01*
X126817380Y-98447127D01*
X125817380Y-98022127D02*
X125817380Y-97464985D01*
X126198333Y-97812604D01*
X126198333Y-97684032D01*
X126245952Y-97604270D01*
X126293571Y-97567366D01*
X126388809Y-97536413D01*
X126626904Y-97566175D01*
X126722142Y-97620937D01*
X126769761Y-97669747D01*
X126817380Y-97761413D01*
X126817380Y-98018556D01*
X126769761Y-98098318D01*
X126722142Y-98135223D01*
X126817380Y-96732842D02*
X126817380Y-97247127D01*
X126817380Y-96989985D02*
X125817380Y-96864985D01*
X125960238Y-96968556D01*
X126055476Y-97066175D01*
X126103095Y-97157842D01*
X126531666Y-96354270D02*
X126531666Y-95925699D01*
X126817380Y-96475699D02*
X125817380Y-96050699D01*
X126817380Y-95875699D01*
%TO.C,U2*%
X146264380Y-116331904D02*
X147073904Y-116331904D01*
X147169142Y-116284285D01*
X147216761Y-116236666D01*
X147264380Y-116141428D01*
X147264380Y-115950952D01*
X147216761Y-115855714D01*
X147169142Y-115808095D01*
X147073904Y-115760476D01*
X146264380Y-115760476D01*
X146359619Y-115331904D02*
X146312000Y-115284285D01*
X146264380Y-115189047D01*
X146264380Y-114950952D01*
X146312000Y-114855714D01*
X146359619Y-114808095D01*
X146454857Y-114760476D01*
X146550095Y-114760476D01*
X146692952Y-114808095D01*
X147264380Y-115379523D01*
X147264380Y-114760476D01*
X146565952Y-70429985D02*
X146518333Y-70509747D01*
X146470714Y-70546651D01*
X146375476Y-70577604D01*
X146327857Y-70571651D01*
X146232619Y-70516889D01*
X146185000Y-70468080D01*
X146137380Y-70376413D01*
X146137380Y-70204985D01*
X146185000Y-70125223D01*
X146232619Y-70088318D01*
X146327857Y-70057366D01*
X146375476Y-70063318D01*
X146470714Y-70118080D01*
X146518333Y-70166889D01*
X146565952Y-70258556D01*
X146565952Y-70429985D01*
X146613571Y-70521651D01*
X146661190Y-70570461D01*
X146756428Y-70625223D01*
X146946904Y-70649032D01*
X147042142Y-70618080D01*
X147089761Y-70581175D01*
X147137380Y-70501413D01*
X147137380Y-70329985D01*
X147089761Y-70238318D01*
X147042142Y-70189508D01*
X146946904Y-70134747D01*
X146756428Y-70110937D01*
X146661190Y-70141889D01*
X146613571Y-70178794D01*
X146565952Y-70258556D01*
X146232619Y-69702604D02*
X146185000Y-69653794D01*
X146137380Y-69562127D01*
X146137380Y-69347842D01*
X146185000Y-69268080D01*
X146232619Y-69231175D01*
X146327857Y-69200223D01*
X146423095Y-69212127D01*
X146565952Y-69272842D01*
X147137380Y-69858556D01*
X147137380Y-69301413D01*
X147042142Y-68389508D02*
X147089761Y-68438318D01*
X147137380Y-68572842D01*
X147137380Y-68658556D01*
X147089761Y-68781175D01*
X146994523Y-68854985D01*
X146899285Y-68885937D01*
X146708809Y-68904985D01*
X146565952Y-68887127D01*
X146375476Y-68820461D01*
X146280238Y-68765699D01*
X146185000Y-68668080D01*
X146137380Y-68533556D01*
X146137380Y-68447842D01*
X146185000Y-68325223D01*
X146232619Y-68288318D01*
X146137380Y-67462127D02*
X146137380Y-67890699D01*
X146613571Y-67993080D01*
X146565952Y-67944270D01*
X146518333Y-67852604D01*
X146518333Y-67638318D01*
X146565952Y-67558556D01*
X146613571Y-67521651D01*
X146708809Y-67490699D01*
X146946904Y-67520461D01*
X147042142Y-67575223D01*
X147089761Y-67624032D01*
X147137380Y-67715699D01*
X147137380Y-67929985D01*
X147089761Y-68009747D01*
X147042142Y-68046651D01*
X146137380Y-66604985D02*
X146137380Y-67033556D01*
X146613571Y-67135937D01*
X146565952Y-67087127D01*
X146518333Y-66995461D01*
X146518333Y-66781175D01*
X146565952Y-66701413D01*
X146613571Y-66664508D01*
X146708809Y-66633556D01*
X146946904Y-66663318D01*
X147042142Y-66718080D01*
X147089761Y-66766889D01*
X147137380Y-66858556D01*
X147137380Y-67072842D01*
X147089761Y-67152604D01*
X147042142Y-67189508D01*
%TO.C,U5*%
X199477380Y-116331904D02*
X200286904Y-116331904D01*
X200382142Y-116284285D01*
X200429761Y-116236666D01*
X200477380Y-116141428D01*
X200477380Y-115950952D01*
X200429761Y-115855714D01*
X200382142Y-115808095D01*
X200286904Y-115760476D01*
X199477380Y-115760476D01*
X199477380Y-114808095D02*
X199477380Y-115284285D01*
X199953571Y-115331904D01*
X199905952Y-115284285D01*
X199858333Y-115189047D01*
X199858333Y-114950952D01*
X199905952Y-114855714D01*
X199953571Y-114808095D01*
X200048809Y-114760476D01*
X200286904Y-114760476D01*
X200382142Y-114808095D01*
X200429761Y-114855714D01*
X200477380Y-114950952D01*
X200477380Y-115189047D01*
X200429761Y-115284285D01*
X200382142Y-115331904D01*
X199477380Y-102948556D02*
X199477380Y-102348556D01*
X200477380Y-102859270D01*
X199810714Y-101661651D02*
X200477380Y-101744985D01*
X199429761Y-101828318D02*
X200144047Y-102131889D01*
X200144047Y-101574747D01*
X200477380Y-101273556D02*
X199477380Y-101148556D01*
X199953571Y-101208080D02*
X199953571Y-100693794D01*
X200477380Y-100759270D02*
X199477380Y-100634270D01*
X200382142Y-99804508D02*
X200429761Y-99853318D01*
X200477380Y-99987842D01*
X200477380Y-100073556D01*
X200429761Y-100196175D01*
X200334523Y-100269985D01*
X200239285Y-100300937D01*
X200048809Y-100319985D01*
X199905952Y-100302127D01*
X199715476Y-100235461D01*
X199620238Y-100180699D01*
X199525000Y-100083080D01*
X199477380Y-99948556D01*
X199477380Y-99862842D01*
X199525000Y-99740223D01*
X199572619Y-99703318D01*
X199477380Y-99434270D02*
X199477380Y-98919985D01*
X200477380Y-99302127D02*
X199477380Y-99177127D01*
X200477380Y-98273556D02*
X200477380Y-98787842D01*
X200477380Y-98530699D02*
X199477380Y-98405699D01*
X199620238Y-98509270D01*
X199715476Y-98606889D01*
X199763095Y-98698556D01*
X199477380Y-97848556D02*
X199477380Y-97291413D01*
X199858333Y-97639032D01*
X199858333Y-97510461D01*
X199905952Y-97430699D01*
X199953571Y-97393794D01*
X200048809Y-97362842D01*
X200286904Y-97392604D01*
X200382142Y-97447366D01*
X200429761Y-97496175D01*
X200477380Y-97587842D01*
X200477380Y-97844985D01*
X200429761Y-97924747D01*
X200382142Y-97961651D01*
X199905952Y-96830699D02*
X199858333Y-96910461D01*
X199810714Y-96947366D01*
X199715476Y-96978318D01*
X199667857Y-96972366D01*
X199572619Y-96917604D01*
X199525000Y-96868794D01*
X199477380Y-96777127D01*
X199477380Y-96605699D01*
X199525000Y-96525937D01*
X199572619Y-96489032D01*
X199667857Y-96458080D01*
X199715476Y-96464032D01*
X199810714Y-96518794D01*
X199858333Y-96567604D01*
X199905952Y-96659270D01*
X199905952Y-96830699D01*
X199953571Y-96922366D01*
X200001190Y-96971175D01*
X200096428Y-97025937D01*
X200286904Y-97049747D01*
X200382142Y-97018794D01*
X200429761Y-96981889D01*
X200477380Y-96902127D01*
X200477380Y-96730699D01*
X200429761Y-96639032D01*
X200382142Y-96590223D01*
X200286904Y-96535461D01*
X200096428Y-96511651D01*
X200001190Y-96542604D01*
X199953571Y-96579508D01*
X199905952Y-96659270D01*
%TO.C,U6*%
X175347380Y-73151904D02*
X176156904Y-73151904D01*
X176252142Y-73104285D01*
X176299761Y-73056666D01*
X176347380Y-72961428D01*
X176347380Y-72770952D01*
X176299761Y-72675714D01*
X176252142Y-72628095D01*
X176156904Y-72580476D01*
X175347380Y-72580476D01*
X175347380Y-71675714D02*
X175347380Y-71866190D01*
X175395000Y-71961428D01*
X175442619Y-72009047D01*
X175585476Y-72104285D01*
X175775952Y-72151904D01*
X176156904Y-72151904D01*
X176252142Y-72104285D01*
X176299761Y-72056666D01*
X176347380Y-71961428D01*
X176347380Y-71770952D01*
X176299761Y-71675714D01*
X176252142Y-71628095D01*
X176156904Y-71580476D01*
X175918809Y-71580476D01*
X175823571Y-71628095D01*
X175775952Y-71675714D01*
X175728333Y-71770952D01*
X175728333Y-71961428D01*
X175775952Y-72056666D01*
X175823571Y-72104285D01*
X175918809Y-72151904D01*
X176617380Y-59339985D02*
X176617380Y-58739985D01*
X177617380Y-59250699D01*
X176950714Y-58053080D02*
X177617380Y-58136413D01*
X176569761Y-58219747D02*
X177284047Y-58523318D01*
X177284047Y-57966175D01*
X177617380Y-57664985D02*
X176617380Y-57539985D01*
X177093571Y-57599508D02*
X177093571Y-57085223D01*
X177617380Y-57150699D02*
X176617380Y-57025699D01*
X177522142Y-56195937D02*
X177569761Y-56244747D01*
X177617380Y-56379270D01*
X177617380Y-56464985D01*
X177569761Y-56587604D01*
X177474523Y-56661413D01*
X177379285Y-56692366D01*
X177188809Y-56711413D01*
X177045952Y-56693556D01*
X176855476Y-56626889D01*
X176760238Y-56572127D01*
X176665000Y-56474508D01*
X176617380Y-56339985D01*
X176617380Y-56254270D01*
X176665000Y-56131651D01*
X176712619Y-56094747D01*
X176617380Y-55825699D02*
X176617380Y-55311413D01*
X177617380Y-55693556D02*
X176617380Y-55568556D01*
X176617380Y-55097127D02*
X176617380Y-54497127D01*
X177617380Y-55007842D01*
X176950714Y-53810223D02*
X177617380Y-53893556D01*
X176569761Y-53976889D02*
X177284047Y-54280461D01*
X177284047Y-53723318D01*
%TO.C,U7*%
X188047380Y-73151904D02*
X188856904Y-73151904D01*
X188952142Y-73104285D01*
X188999761Y-73056666D01*
X189047380Y-72961428D01*
X189047380Y-72770952D01*
X188999761Y-72675714D01*
X188952142Y-72628095D01*
X188856904Y-72580476D01*
X188047380Y-72580476D01*
X188047380Y-72199523D02*
X188047380Y-71532857D01*
X189047380Y-71961428D01*
X189317380Y-59339985D02*
X189317380Y-58739985D01*
X190317380Y-59250699D01*
X189650714Y-58053080D02*
X190317380Y-58136413D01*
X189269761Y-58219747D02*
X189984047Y-58523318D01*
X189984047Y-57966175D01*
X190317380Y-57664985D02*
X189317380Y-57539985D01*
X189793571Y-57599508D02*
X189793571Y-57085223D01*
X190317380Y-57150699D02*
X189317380Y-57025699D01*
X190222142Y-56195937D02*
X190269761Y-56244747D01*
X190317380Y-56379270D01*
X190317380Y-56464985D01*
X190269761Y-56587604D01*
X190174523Y-56661413D01*
X190079285Y-56692366D01*
X189888809Y-56711413D01*
X189745952Y-56693556D01*
X189555476Y-56626889D01*
X189460238Y-56572127D01*
X189365000Y-56474508D01*
X189317380Y-56339985D01*
X189317380Y-56254270D01*
X189365000Y-56131651D01*
X189412619Y-56094747D01*
X189317380Y-55825699D02*
X189317380Y-55311413D01*
X190317380Y-55693556D02*
X189317380Y-55568556D01*
X189317380Y-55097127D02*
X189317380Y-54497127D01*
X190317380Y-55007842D01*
X189650714Y-53810223D02*
X190317380Y-53893556D01*
X189269761Y-53976889D02*
X189984047Y-54280461D01*
X189984047Y-53723318D01*
%TO.C,U8*%
X199477380Y-88391904D02*
X200286904Y-88391904D01*
X200382142Y-88344285D01*
X200429761Y-88296666D01*
X200477380Y-88201428D01*
X200477380Y-88010952D01*
X200429761Y-87915714D01*
X200382142Y-87868095D01*
X200286904Y-87820476D01*
X199477380Y-87820476D01*
X199905952Y-87201428D02*
X199858333Y-87296666D01*
X199810714Y-87344285D01*
X199715476Y-87391904D01*
X199667857Y-87391904D01*
X199572619Y-87344285D01*
X199525000Y-87296666D01*
X199477380Y-87201428D01*
X199477380Y-87010952D01*
X199525000Y-86915714D01*
X199572619Y-86868095D01*
X199667857Y-86820476D01*
X199715476Y-86820476D01*
X199810714Y-86868095D01*
X199858333Y-86915714D01*
X199905952Y-87010952D01*
X199905952Y-87201428D01*
X199953571Y-87296666D01*
X200001190Y-87344285D01*
X200096428Y-87391904D01*
X200286904Y-87391904D01*
X200382142Y-87344285D01*
X200429761Y-87296666D01*
X200477380Y-87201428D01*
X200477380Y-87010952D01*
X200429761Y-86915714D01*
X200382142Y-86868095D01*
X200286904Y-86820476D01*
X200096428Y-86820476D01*
X200001190Y-86868095D01*
X199953571Y-86915714D01*
X199905952Y-87010952D01*
X199477380Y-77119985D02*
X199477380Y-76519985D01*
X200477380Y-77030699D01*
X199810714Y-75833080D02*
X200477380Y-75916413D01*
X199429761Y-75999747D02*
X200144047Y-76303318D01*
X200144047Y-75746175D01*
X200477380Y-75444985D02*
X199477380Y-75319985D01*
X199953571Y-75379508D02*
X199953571Y-74865223D01*
X200477380Y-74930699D02*
X199477380Y-74805699D01*
X200382142Y-73975937D02*
X200429761Y-74024747D01*
X200477380Y-74159270D01*
X200477380Y-74244985D01*
X200429761Y-74367604D01*
X200334523Y-74441413D01*
X200239285Y-74472366D01*
X200048809Y-74491413D01*
X199905952Y-74473556D01*
X199715476Y-74406889D01*
X199620238Y-74352127D01*
X199525000Y-74254508D01*
X199477380Y-74119985D01*
X199477380Y-74034270D01*
X199525000Y-73911651D01*
X199572619Y-73874747D01*
X199477380Y-73605699D02*
X199477380Y-73091413D01*
X200477380Y-73473556D02*
X199477380Y-73348556D01*
X199477380Y-72877127D02*
X199477380Y-72319985D01*
X199858333Y-72667604D01*
X199858333Y-72539032D01*
X199905952Y-72459270D01*
X199953571Y-72422366D01*
X200048809Y-72391413D01*
X200286904Y-72421175D01*
X200382142Y-72475937D01*
X200429761Y-72524747D01*
X200477380Y-72616413D01*
X200477380Y-72873556D01*
X200429761Y-72953318D01*
X200382142Y-72990223D01*
X199572619Y-71989032D02*
X199525000Y-71940223D01*
X199477380Y-71848556D01*
X199477380Y-71634270D01*
X199525000Y-71554508D01*
X199572619Y-71517604D01*
X199667857Y-71486651D01*
X199763095Y-71498556D01*
X199905952Y-71559270D01*
X200477380Y-72144985D01*
X200477380Y-71587842D01*
%TO.C,U9*%
X162647380Y-73151904D02*
X163456904Y-73151904D01*
X163552142Y-73104285D01*
X163599761Y-73056666D01*
X163647380Y-72961428D01*
X163647380Y-72770952D01*
X163599761Y-72675714D01*
X163552142Y-72628095D01*
X163456904Y-72580476D01*
X162647380Y-72580476D01*
X163647380Y-72056666D02*
X163647380Y-71866190D01*
X163599761Y-71770952D01*
X163552142Y-71723333D01*
X163409285Y-71628095D01*
X163218809Y-71580476D01*
X162837857Y-71580476D01*
X162742619Y-71628095D01*
X162695000Y-71675714D01*
X162647380Y-71770952D01*
X162647380Y-71961428D01*
X162695000Y-72056666D01*
X162742619Y-72104285D01*
X162837857Y-72151904D01*
X163075952Y-72151904D01*
X163171190Y-72104285D01*
X163218809Y-72056666D01*
X163266428Y-71961428D01*
X163266428Y-71770952D01*
X163218809Y-71675714D01*
X163171190Y-71628095D01*
X163075952Y-71580476D01*
X163917380Y-59339985D02*
X163917380Y-58739985D01*
X164917380Y-59250699D01*
X164250714Y-58053080D02*
X164917380Y-58136413D01*
X163869761Y-58219747D02*
X164584047Y-58523318D01*
X164584047Y-57966175D01*
X164917380Y-57664985D02*
X163917380Y-57539985D01*
X164393571Y-57599508D02*
X164393571Y-57085223D01*
X164917380Y-57150699D02*
X163917380Y-57025699D01*
X164822142Y-56195937D02*
X164869761Y-56244747D01*
X164917380Y-56379270D01*
X164917380Y-56464985D01*
X164869761Y-56587604D01*
X164774523Y-56661413D01*
X164679285Y-56692366D01*
X164488809Y-56711413D01*
X164345952Y-56693556D01*
X164155476Y-56626889D01*
X164060238Y-56572127D01*
X163965000Y-56474508D01*
X163917380Y-56339985D01*
X163917380Y-56254270D01*
X163965000Y-56131651D01*
X164012619Y-56094747D01*
X163917380Y-55825699D02*
X163917380Y-55311413D01*
X164917380Y-55693556D02*
X163917380Y-55568556D01*
X163917380Y-54839985D02*
X163917380Y-54754270D01*
X163965000Y-54674508D01*
X164012619Y-54637604D01*
X164107857Y-54606651D01*
X164298333Y-54587604D01*
X164536428Y-54617366D01*
X164726904Y-54684032D01*
X164822142Y-54738794D01*
X164869761Y-54787604D01*
X164917380Y-54879270D01*
X164917380Y-54964985D01*
X164869761Y-55044747D01*
X164822142Y-55081651D01*
X164726904Y-55112604D01*
X164536428Y-55131651D01*
X164298333Y-55101889D01*
X164107857Y-55035223D01*
X164012619Y-54980461D01*
X163965000Y-54931651D01*
X163917380Y-54839985D01*
X163917380Y-53982842D02*
X163917380Y-53897127D01*
X163965000Y-53817366D01*
X164012619Y-53780461D01*
X164107857Y-53749508D01*
X164298333Y-53730461D01*
X164536428Y-53760223D01*
X164726904Y-53826889D01*
X164822142Y-53881651D01*
X164869761Y-53930461D01*
X164917380Y-54022127D01*
X164917380Y-54107842D01*
X164869761Y-54187604D01*
X164822142Y-54224508D01*
X164726904Y-54255461D01*
X164536428Y-54274508D01*
X164298333Y-54244747D01*
X164107857Y-54178080D01*
X164012619Y-54123318D01*
X163965000Y-54074508D01*
X163917380Y-53982842D01*
%TO.C,U3*%
X186777380Y-116331904D02*
X187586904Y-116331904D01*
X187682142Y-116284285D01*
X187729761Y-116236666D01*
X187777380Y-116141428D01*
X187777380Y-115950952D01*
X187729761Y-115855714D01*
X187682142Y-115808095D01*
X187586904Y-115760476D01*
X186777380Y-115760476D01*
X186777380Y-115379523D02*
X186777380Y-114760476D01*
X187158333Y-115093809D01*
X187158333Y-114950952D01*
X187205952Y-114855714D01*
X187253571Y-114808095D01*
X187348809Y-114760476D01*
X187586904Y-114760476D01*
X187682142Y-114808095D01*
X187729761Y-114855714D01*
X187777380Y-114950952D01*
X187777380Y-115236666D01*
X187729761Y-115331904D01*
X187682142Y-115379523D01*
X187205952Y-107259985D02*
X187158333Y-107339747D01*
X187110714Y-107376651D01*
X187015476Y-107407604D01*
X186967857Y-107401651D01*
X186872619Y-107346889D01*
X186825000Y-107298080D01*
X186777380Y-107206413D01*
X186777380Y-107034985D01*
X186825000Y-106955223D01*
X186872619Y-106918318D01*
X186967857Y-106887366D01*
X187015476Y-106893318D01*
X187110714Y-106948080D01*
X187158333Y-106996889D01*
X187205952Y-107088556D01*
X187205952Y-107259985D01*
X187253571Y-107351651D01*
X187301190Y-107400461D01*
X187396428Y-107455223D01*
X187586904Y-107479032D01*
X187682142Y-107448080D01*
X187729761Y-107411175D01*
X187777380Y-107331413D01*
X187777380Y-107159985D01*
X187729761Y-107068318D01*
X187682142Y-107019508D01*
X187586904Y-106964747D01*
X187396428Y-106940937D01*
X187301190Y-106971889D01*
X187253571Y-107008794D01*
X187205952Y-107088556D01*
X186872619Y-106532604D02*
X186825000Y-106483794D01*
X186777380Y-106392127D01*
X186777380Y-106177842D01*
X186825000Y-106098080D01*
X186872619Y-106061175D01*
X186967857Y-106030223D01*
X187063095Y-106042127D01*
X187205952Y-106102842D01*
X187777380Y-106688556D01*
X187777380Y-106131413D01*
X187682142Y-105219508D02*
X187729761Y-105268318D01*
X187777380Y-105402842D01*
X187777380Y-105488556D01*
X187729761Y-105611175D01*
X187634523Y-105684985D01*
X187539285Y-105715937D01*
X187348809Y-105734985D01*
X187205952Y-105717127D01*
X187015476Y-105650461D01*
X186920238Y-105595699D01*
X186825000Y-105498080D01*
X186777380Y-105363556D01*
X186777380Y-105277842D01*
X186825000Y-105155223D01*
X186872619Y-105118318D01*
X186777380Y-104292127D02*
X186777380Y-104720699D01*
X187253571Y-104823080D01*
X187205952Y-104774270D01*
X187158333Y-104682604D01*
X187158333Y-104468318D01*
X187205952Y-104388556D01*
X187253571Y-104351651D01*
X187348809Y-104320699D01*
X187586904Y-104350461D01*
X187682142Y-104405223D01*
X187729761Y-104454032D01*
X187777380Y-104545699D01*
X187777380Y-104759985D01*
X187729761Y-104839747D01*
X187682142Y-104876651D01*
X187110714Y-103519508D02*
X187777380Y-103602842D01*
X186729761Y-103686175D02*
X187444047Y-103989747D01*
X187444047Y-103432604D01*
%TO.C,U4*%
X166457380Y-116331904D02*
X167266904Y-116331904D01*
X167362142Y-116284285D01*
X167409761Y-116236666D01*
X167457380Y-116141428D01*
X167457380Y-115950952D01*
X167409761Y-115855714D01*
X167362142Y-115808095D01*
X167266904Y-115760476D01*
X166457380Y-115760476D01*
X166790714Y-114855714D02*
X167457380Y-114855714D01*
X166409761Y-115093809D02*
X167124047Y-115331904D01*
X167124047Y-114712857D01*
X166457380Y-91687842D02*
X166457380Y-91859270D01*
X166505000Y-91950937D01*
X166552619Y-91999747D01*
X166695476Y-92103318D01*
X166885952Y-92169985D01*
X167266904Y-92217604D01*
X167362142Y-92186651D01*
X167409761Y-92149747D01*
X167457380Y-92069985D01*
X167457380Y-91898556D01*
X167409761Y-91806889D01*
X167362142Y-91758080D01*
X167266904Y-91703318D01*
X167028809Y-91673556D01*
X166933571Y-91704508D01*
X166885952Y-91741413D01*
X166838333Y-91821175D01*
X166838333Y-91992604D01*
X166885952Y-92084270D01*
X166933571Y-92133080D01*
X167028809Y-92187842D01*
X166552619Y-91271175D02*
X166505000Y-91222366D01*
X166457380Y-91130699D01*
X166457380Y-90916413D01*
X166505000Y-90836651D01*
X166552619Y-90799747D01*
X166647857Y-90768794D01*
X166743095Y-90780699D01*
X166885952Y-90841413D01*
X167457380Y-91427127D01*
X167457380Y-90869985D01*
X166552619Y-90414032D02*
X166505000Y-90365223D01*
X166457380Y-90273556D01*
X166457380Y-90059270D01*
X166505000Y-89979508D01*
X166552619Y-89942604D01*
X166647857Y-89911651D01*
X166743095Y-89923556D01*
X166885952Y-89984270D01*
X167457380Y-90569985D01*
X167457380Y-90012842D01*
X166457380Y-89073556D02*
X166457380Y-89502127D01*
X166933571Y-89604508D01*
X166885952Y-89555699D01*
X166838333Y-89464032D01*
X166838333Y-89249747D01*
X166885952Y-89169985D01*
X166933571Y-89133080D01*
X167028809Y-89102127D01*
X167266904Y-89131889D01*
X167362142Y-89186651D01*
X167409761Y-89235461D01*
X167457380Y-89327127D01*
X167457380Y-89541413D01*
X167409761Y-89621175D01*
X167362142Y-89658080D01*
X166457380Y-88259270D02*
X166457380Y-88430699D01*
X166505000Y-88522366D01*
X166552619Y-88571175D01*
X166695476Y-88674747D01*
X166885952Y-88741413D01*
X167266904Y-88789032D01*
X167362142Y-88758080D01*
X167409761Y-88721175D01*
X167457380Y-88641413D01*
X167457380Y-88469985D01*
X167409761Y-88378318D01*
X167362142Y-88329508D01*
X167266904Y-88274747D01*
X167028809Y-88244985D01*
X166933571Y-88275937D01*
X166885952Y-88312842D01*
X166838333Y-88392604D01*
X166838333Y-88564032D01*
X166885952Y-88655699D01*
X166933571Y-88704508D01*
X167028809Y-88759270D01*
%TD*%
M02*
